<svg id="round-question_answer-24px" xmlns="http://www.w3.org/2000/svg" width="62.4" height="62.4" viewBox="0 0 62.4 62.4">
  <path id="Path_18" data-name="Path 18" d="M0,0H62.4V62.4H0Z" fill="none"/>
  <path id="Path_19" data-name="Path 19" d="M48.8,12.4H46.2V33.2a2.608,2.608,0,0,1-2.6,2.6H12.4v2.6a5.215,5.215,0,0,0,5.2,5.2h26L54,54V17.6A5.215,5.215,0,0,0,48.8,12.4ZM41,25.4V7.2A5.215,5.215,0,0,0,35.8,2H7.2A5.215,5.215,0,0,0,2,7.2V41L12.4,30.6H35.8A5.215,5.215,0,0,0,41,25.4Z" transform="translate(3.2 3.2)" fill="#fff"/>
</svg>
