<svg id="round-home-24px" xmlns="http://www.w3.org/2000/svg" width="60.4" height="56" viewBox="0 0 60.4 56">
  <path id="Path_1" data-name="Path 1" d="M0,0H60.4V56H0Z" fill="none"/>
  <path id="Path_2" data-name="Path 2" d="M24.239,49.079V34.472H36.152V49.079A2.959,2.959,0,0,0,39.13,52h8.935a2.959,2.959,0,0,0,2.978-2.921V28.629h5.063a1.446,1.446,0,0,0,.983-2.542l-24.9-22a3.045,3.045,0,0,0-3.991,0l-24.9,22a1.451,1.451,0,0,0,.983,2.542H9.348V49.079A2.959,2.959,0,0,0,12.326,52h8.935A2.959,2.959,0,0,0,24.239,49.079Z" transform="translate(0 0)" fill="#fff"/>
</svg>
