<svg xmlns="http://www.w3.org/2000/svg" width="69.473" height="53.058" viewBox="0 0 69.473 53.058">
  <path id="round-playlist_add_check-24px" d="M39.111,21.614H5.374A3.679,3.679,0,0,0,2,25.517a3.679,3.679,0,0,0,3.374,3.9H39.111a3.679,3.679,0,0,0,3.374-3.9A3.679,3.679,0,0,0,39.111,21.614ZM39.111,6H5.374A3.679,3.679,0,0,0,2,9.9a3.679,3.679,0,0,0,3.374,3.9H39.111a3.679,3.679,0,0,0,3.374-3.9A3.679,3.679,0,0,0,39.111,6ZM5.374,45.035H25.616a3.679,3.679,0,0,0,3.374-3.9,3.679,3.679,0,0,0-3.374-3.9H5.374A3.679,3.679,0,0,0,2,41.131,3.679,3.679,0,0,0,5.374,45.035ZM70.182,30.241l.3.351a4.331,4.331,0,0,1,0,5.5L51.661,57.916a3.048,3.048,0,0,1-4.757,0L36.479,45.854a4.331,4.331,0,0,1,0-5.5l.3-.351a3.048,3.048,0,0,1,4.757,0L49.3,48.977l16.126-18.7a3.024,3.024,0,0,1,4.757-.039Z" transform="translate(-2 -6)" fill="#fff"/>
</svg>
