<svg xmlns="http://www.w3.org/2000/svg" width="59.336" height="59.337" viewBox="0 0 59.336 59.337">
  <g id="linkedin-sign" transform="translate(-0.003)">
    <path id="Path_16" data-name="Path 16" d="M56.075,3.264A10.714,10.714,0,0,0,48.214,0H11.129A10.718,10.718,0,0,0,3.267,3.264,10.718,10.718,0,0,0,0,11.126V48.211a10.718,10.718,0,0,0,3.264,7.862,10.717,10.717,0,0,0,7.862,3.264H48.214A11.145,11.145,0,0,0,59.339,48.211V11.126A10.718,10.718,0,0,0,56.075,3.264ZM18.082,49.679H9.158V22.869h8.924v26.81Zm-.811-31.773a5.082,5.082,0,0,1-3.67,1.333h-.039a4.91,4.91,0,0,1-3.573-1.333,4.42,4.42,0,0,1-1.372-3.3,4.347,4.347,0,0,1,1.41-3.323,5.143,5.143,0,0,1,3.651-1.314,4.937,4.937,0,0,1,3.593,1.314A4.566,4.566,0,0,1,18.661,14.6,4.393,4.393,0,0,1,17.271,17.905ZM50.184,49.679H41.26V35.347q0-6.064-4.481-6.065a4.371,4.371,0,0,0-2.859.946,5.945,5.945,0,0,0-1.738,2.3,6.372,6.372,0,0,0-.27,2.162V49.679H22.988q.116-24.26,0-26.81h8.924v3.785a8.962,8.962,0,0,1,8-4.4A9.671,9.671,0,0,1,47.365,25.3q2.82,3.052,2.82,9V49.679h0Z" fill="red"/>
  </g>
</svg>
