<svg xmlns="http://www.w3.org/2000/svg" viewBox="0 0 242.57 280.31"><defs><style>.cls-1{fill:#141011;}.cls-2{fill:#cac7dd;}.cls-3{fill:#106bb9;}.cls-4{fill:#f6d4b2;}.cls-5{fill:#a70f10;}.cls-6{fill:#593027;}.cls-7{fill:#ee4f58;}.cls-8{fill:#792a11;}.cls-9{fill:#787490;}.cls-10{fill:#c35208;}.cls-11{fill:#e4a089;}.cls-12{fill:#df0b19;}.cls-13{fill:#fdfdfd;}.cls-14{fill:#6ed0f3;}.cls-15{fill:#f5ee4c;}.cls-16{fill:#f5c909;}</style></defs><title>Asset 1</title><g id="Layer_2" data-name="Layer 2"><g id="Layer_1-2" data-name="Layer 1"><path class="cls-1" d="M118.79,6.28C123,4.84,127.13,3.08,131.42,2c21.92-5.54,37.66.35,50.69,18.72.76,1.07,1.6,2.1,2.4,3.15,4.3,8.66,8.35,17.45,9.81,27.07,1.38,9.17,1,18.11-7.32,24.41-1.71,1.29-1,2.29-.64,3.78,2,7.5-2.48,20.66-9.57,22.77-6,1.8-8.93,6.16-13.08,9.58-5.6,4.61-12.46,5.71-20,6.94,2.62,2.2,4.91,3.82,6.84,5.8,6.07,6.22,12.92,6.95,20.86,4,5.14-1.92,9.53-4.9,14.21-7.52,5.58-3.11,7.3-5.69,4.33-11.38-1.65-3.17-.65-5.22,3.17-6.61A105.28,105.28,0,0,1,209,98.59c.76-.16,2.18-.36,2.27-.14,1.63,4.08,6.49,4,9.09,7.2,1.78,2.22,2.21,2.69.48,4.77-1,1.25-3.95,2.87-1.39,4.85,6.46,5,4.4,12.54,6.18,18.93l-.18.41,0,.15a3.32,3.32,0,0,0-.88,4.35,5.12,5.12,0,0,1-1.21,6c-3,2.42-2.94,4.22.25,6.2,1,.66,1,1.56.18,2.48-5.1,6.07-11.8,8.93-19.54,9.67-1.41.14-1.79-1.25-2.67-1.86-2.83-2-4.32-5.85-7.67-6.6-5.37-1.2-10.83-3.66-16.48-.21-2,1.25-4.82,1.21-7.16,2-1.88.66-5.15-1.17-5.34,2.74-.12,2.48-.2,5-.18,7.46,0,.73.78,1,1.48,1.05,8.48,1.06,12.9,6.76,15.93,14,.82,2-.2,4.42,1.6,6.13l-.11-.14c.17.59.38,1.16,1.13,1.21l-.3-.12,1.26,2.09-.12.06c1.66,7.47-2.19,12.47-7.67,16.59-5.69,4.28-12.52,6.06-19.14,8.3-1.88.63-5.08.55-3.58,4.24.08.21-.17.68-.39.88a22.4,22.4,0,0,1-16.15,5.46c-4.49-.23-6.84-3.22-9.62-6.76-4.58-5.82-3.8-12.69-5.92-18.91-.81-2.37.19-4.63,1.12-6.76a25,25,0,0,0,2.19-7.49c-5.74,2-11.39,2.85-18,.71,2,12.06,3.34,23.26,10.34,33.61,3.2,4.72,7.13,10.19,7.86,16.46.37,3.17,4,5.89,2.26,8.88-4.34,7.38-3.34,16.71-9.14,23.52a38.53,38.53,0,0,1-9,7.74C98.44,285.47,86,274,84.78,263.55A24,24,0,0,1,89,246.46c1-1.48.67-2.48.46-4.18-2.06-16.54-13.84-29.44-16.65-45.7-2.15-12.42-3.55-24.84-3.15-37.45.31-11.1,3.68-21.46,7.73-31.65l0-.12,2-3.9-.31,0h.32c.63-.47.83-1,.21-1.64a.46.46,0,0,0-.16-.5c-.4-.48-.8-1-1.21-1.45l0-.06c-.26-.37-.51-.74-.77-1.1l0-.11L76,116.91l-.87-1.21L74,114C65.11,99.85,56.6,85.46,50.75,69.67c-2.76-7.44-7.91-12.91-15.68-14C30.21,55,29.6,52.33,28.85,49c-.51-2.26-.74-4.58-1.09-6.87.17-2.32.2-4.66.55-6.94.53-3.5.46-8,6.24-4.57,1.54.92,2.34.06,2.75-1.55a6.86,6.86,0,0,1,5.94-5.32c1.52-.25,2-1.58,3-2.28,5.54-3.87,11.81-7,18.51-5.38,3.8.89,5.21.19,6.2-2.85,1.14-3.53,2.75-5.31,6-2.06,1.45,1.46,2.78-1,4,.21,1.46,1.4,2.34,4.71,4.3,4,3-1.11,2.6.81,3,2.13,1.3,4.29,2.5,8.61,3.9,13.48,4.18-7.78,10.28-12.77,16.6-17.62C112,10.82,116,9.4,118.79,6.28Zm-3,263.79,1-1a2.34,2.34,0,0,0,1.57-2c0-.09-.3-.3-.34-.27A2.31,2.31,0,0,0,116.8,269a1,1,0,0,0-1.18.79l-1.1,1a2,2,0,0,0-1.8,1.14c-.83.31-2.27.78-1.62,1.62s1.48-.39,2-1.08l1.69-1.42Zm66.05-78c.06-.76.14-1.54-1-1.09l.06.06c.34-2.63-2-2.71-3.44-3.22-6.28-2.22-11.8-.27-16.47,4-4.27,3.87-8.17,8.16-12.23,12.26l.05,0a2.91,2.91,0,0,0-.88.16l-1.13-.12c1.39-4.51,5.94-6.3,8.47-9.89,5.14-7.28,12.25-10.73,21.27-9.88.81.61,1.87,1.39,2.67.79,1.14-.86.2-2.13-.14-3.16-2.05-6.35-8.14-11.55-14.68-11.49-8.12.09-13.7,4.74-17.61,11.59l0,0c-1,.33-1.59.86-1,2h0c-1-.29-1.07.28-1,1h0c-.76-.08-1,.39-1,1l0,0-1.53,2c-2.47,5.73-6.82,9.91-11.45,13.85L129.76,203l0,0c-4,3.07-3.15,6.89-1.42,10.65,1,2.22,2.15,1.57,2.85-.4,5.36-2.79,9.64-7.43,15.59-9.21-1.45,3.19-4.87,4.34-7,6.79-2.66,2.1-6.69,2.88-7,7.23l.06-.08-.84.54.88.83a1.61,1.61,0,0,0,.59,1.84c4.56,4.16,11.39,3.77,17.55-1a2,2,0,0,0,.72-2.4l0-.44.36-1.94c6.94-2.29,14.06-4.13,20.58-7.53,4.51-2.35,8.62-5.17,9.55-10.75,1.07-1.24.82-2.68.64-4.11-.12-.54-.18-1.14-1-1ZM95.65,95.35l-.21-.08c.09.74.24,1.41,1.25,1l-.3-.14-.15.3a2.06,2.06,0,0,0,1.41,1.83l-.11-.08a6.55,6.55,0,0,0,3.09,3.12l-.09-.2,1.19,1.17-.16-.1a2.2,2.2,0,0,0,1.93,1.34l.2-.16-.19-.18c-.22,1,.5,1.07,1.17,1.17l-.16-.09a4.56,4.56,0,0,0,3.23,2l-.14-.16c.42,1,1.3,1.07,2.19,1.14l-.14-.25c0,.73.54.79,1.1.78,1.26,1.46,3.49,1.39,4.56,3.5,2.71,5.39,7.81,6.93,13.05,5.35,4.75-1.44,9.33-1.36,14.08-1.25a18.57,18.57,0,0,0,8.27-1.18c1.21,0,2.45.13,3.21-1.13l-.09,0,2.27-.49.23-.09,1.78-.8.41-.2,2.67-1.72a.56.56,0,0,0,.55-.7l.07-.09,1.06-.58,1.2-1.23,0,0,1.28-1.37a.57.57,0,0,0,.37-.51c.57-.79,1.13-1.59,1.69-2.39a.59.59,0,0,0,.31-.64c2.53-3.43,2.74-7.26,1.91-11.26-2.88-1.6-5.43-1.24-7.33,1.5-2.15,3.11-5.28,5.78-8.68,4.34-5.87-2.5-7.21.71-9.06,4.93-.87,2-3.09,3.42-4.69,5.1-7.38,2.5-14.71,3.23-21.94-.5a.64.64,0,0,0-.7-.35l-2.18-1.4.08.09-1.19-1,.11.09-2-2.13.07.09-.78-1.22-.33.14.3-.19-1.25-1.81.08.12-1-2.16.06.07q-.77-4.84-1.55-9.69c1-2.43-.63-3-2.41-3.8a8.83,8.83,0,0,1-5.69-8c-.25-3.63-.74-4.23-4.87-6.52-5.68,8-5.7,17.35,0,25.48l-.12-.14C94.68,94.75,94.82,95.37,95.65,95.35ZM149.88,128c0-.93-.45-1.21-1.3-1-1-1.29-1.46-3.33-3.78-3l-.08-.9-.55.24.65.64c1.5,6.86.81,15.18,11.15,16,1.29.1,2.49,1.52,3.73,2.32a50,50,0,0,1,4.71,9.84c-.35,2.46,1.1,2.89,3,2.46,4.64-1.06,9.36-1.89,13.7-4,.7-.34,2.3-.35.9-1.78L178.62,138c0-.63,0-1.26-.05-1.89l0-1.08c.06-1.42.11-2.83.17-4.25,1.65-3.57-.76-2.11-2-1.55-8.19,3.51-16.4,5.4-24.84.76l0,0c.32-1-.14-1.22-1-1h0c.23-.91-.24-1.12-1-1Zm-16.07,4.06a2.09,2.09,0,0,0-.27-.39c0-.05-.19,0-.29,0l.61.35a.88.88,0,0,0,1,1c.29,2.88,2.91,3.84,4.73,5.3,1.17.94,3,.18,3.86-1.11.46-.66,1.51-1.54.73-2.63-1-1.34-2.14-.26-3.17-.11-2.28.32-4.2-.66-6.21-1.38ZM75.34,149.5l1.7-1.22,1.19-.81,2-1c16.25-9.36,33.14-9.4,50.54-2.82-.27-1.07-.51-1.54-.89-1.69-2-.81-4-1.63-6.06-2.29-15.77-5-30.8-4.19-44.64,5.75l-1.65,1.31-1.09.94a2,2,0,0,0-1.88,1.13c-.62.51-1.06,1.06-.36,1.83ZM130.83,147l-2,.93-5.57,2.56-.53-.5,4.34-4.78c-2.68-.85-5-1.43-7.27-2.35-3.58-1.49-5.18-.41-6.48,3.27-4,11.43-5.26,23.23-5.43,35.22,0,1.32-.24,2.8,1.3,3.46,4.66,2,9.31,1.51,14.11.22,4.38-1.17,3.42-4.64,3.9-7.56.25-1.47.08-3.08.62-4.42,1.9-4.69-.79-9.78,1.09-14.26,2.07-.4-.88,6.51,3.62,2l.86.76c-4,13-2.55,26.9-7.53,39.7,7.5-4.13,12.38-9.9,16-17,3.91-7.57,9.69-13.42,18-16.22,4.09-2.94,2-7.22,1.9-10.76-.53-13.75-8.52-19.09-21.48-14.71-2.64.89-5.46,1.47-7.6,3.49l.09-.06c-.86,0-1.71.09-2.09,1.06Zm-42-53,0,0a1.48,1.48,0,0,0-1-2h0a3.42,3.42,0,0,0-2-3h0c-4-8.89-8.66-17.49-11.23-27-.6-2.18-1.65-2.36-2.85-.34l-.91.49c-4.56,2-9.1,4.25-14.24,4-3.81-.21-4.06,1-2.75,4.24a217.09,217.09,0,0,0,26.39,47.3c2,2.71,2.8,5.09,1.27,8.1-.32.3-.77.6-.16,1,.08,0,.43-.33.65-.51,1.18-1.15,2.92-2.1,3.42-3.49,1.88-5.15,5.41-9,9-12.92C98.94,105,99,105,94.45,100c-.88-1-1.71-2-2.56-3l-1.56-2C90,94.49,89.69,93.85,88.84,94ZM77.41,24.5l-.09.06C75.15,26.12,75,26.41,76.45,27,80.11,28.36,81.22,31,81,34.68c-.09,1.59-.31,3.58,2.44,2.91,4.57.46,6.34-1.29,5.36-6a77.73,77.73,0,0,0-3.58-12.28c-1.6.9-2.76,1.5-3.39,2.74l-.06,0a1.88,1.88,0,0,0-1.91,1l-.09.06-1.55.78Zm27.45-1.39c.69,0,1.23-.09,1-1l.08.1a73.22,73.22,0,0,1,28.72-5l7.31.62a75.79,75.79,0,0,1,21.6,7.44l5.13,3.67c10.91,7.78,21.35,15.81,16.72,31.77-2.88,2.59-5.62,5.16-4.07,9.72.34,1-1.44,2.55.33,3.47,1.52.78,2.93-.09,4.16-.95s2.72-2,3.08-3.76c2.57-2.57,2.66-6,3-9.24.91-9.8-2.42-18.74-6.3-27.4C177,13.28,160.09.16,139.94,3.05c-8.88,1.27-17.38,3.62-24.28,9.83l.11.08c-1.71-.38-2.89,0-3,2l0,0c-2.18-.11-3.71.65-4,3l0,0c-1.28-.84-1.64.1-2,1h0c-2.1.33-3.17,2-4.51,3.38-1.73,1.69-3.88,3-4.48,5.61h0a3,3,0,0,0-2,3l0,0-1.52,2c-2.27,5-3.61,10,1,15.37,1-3.11,5.18-4.81,4.23-7.09-2-4.74.15-8.75.54-13.06l0-.13L101.12,27,103,24.17c.77-.11,1.77.19,1.9-1.06ZM168.05,69.8c-.17-1.2-.24-2.5-2.07-2h0c0-2.08-1.59-1.91-2.94-2l-.1.15c.19-1-.66-1-1.23-1.32L159.8,62.8l.06-2.84,2.84-2.08a8.79,8.79,0,0,1,2.39.41c2.11,1,4.69,1.35,5.55-.77,1-2.48-2.58-2.16-3.63-3.62-.83-1.62,2.25-4-.69-5-1.88-.61-4.36-.65-4.5,2.57-4,1.09-8.9.88-9.81,6.59,0,.66-.08,1.33-.11,2a2.68,2.68,0,0,0,1.75,3.12,4.22,4.22,0,0,0,3,1.91c1.4,1.36,3.09,2.47,3.75,4.45-.36.81-.72,1.62-1.09,2.42-3.22,1.36-6.19-.92-9.34-.62l-1.17-3.91,1,.16c2.21,1,4.38,2.13,7.27,2.15-10.64-10.49-10.74-12.92-1-20.49l-5.57-.83c.89-1.88,3.1-1.35,3.64-3.44-4.71-1.57-9.41-3.21-14.17-4.68-.79-.24-2.14-1.25-2.69.48-1,3.17-4.79,4.63-5,8.44-.07,1.2-1.84.74-3,.44-2.65-.68-5.09-2.26-9.35-2.27l8.63,5.75c.47,1.94,2,3.62,1.46,5.82l-2.95.48c.07-1.86.88-4.06-2-4.6l0-.16c-.36-1.75-1.39-2.36-3.09-1.8h0c-.62-2.1-3.26-2.33-4-4.32l.15-1.47,1-1.89,0,0c2.89-1.41,5.51-.14,8.11.91,1.3.52,2.14.83,3.13-.79,1.15-1.89-.46-2-1.11-3-1-1.53-4.17-1.21-3.52-4.15.23-1,.74-2.35-.93-2.86s-3.24-.17-4.06,1.68c-1.43,2.53-4.53.93-6.33,2.54l-1.75,1.3a4.2,4.2,0,0,0-2.15,3.36c-.64,1.38-.93,2.73.31,4a2.65,2.65,0,0,0,1.81,2l4.5,3c1,1.35,1.9,2.71,1.21,4.51a.71.71,0,0,0-.5.6l-1,.8,0,0c-2.91.27-5.5-.84-8.17-1.75-.94-.33-2.56-1.86-2.88.76h0c-1.1.51-1.17,1.26-.54,2.19l5.28,2.15a6.14,6.14,0,0,1,.19,2.41c-.64,1.8-.59,3,1.43,3.92,2.26,1,2.94-.17,3.58-1.87.53-1.42,1.47-2.16,3.06-1.72-.54,1.19-1.43,2.35-1.55,3.58-.54,5.22-3.07,3.95-6.38,2.48-4.71-2.09-8.13-5.95-13.17-8.25,3.12,5.53,4,11.86,7.62,17.06.92,1.33,2.68,1.28,4.17,1.12,2.38-.25,3.71.4,5,2.74,2.91,5.15,6.89,6.65,11.63,4.5,3.34-1.5,5.25-.62,7,2.19s4.59,4.27,7.68,3.47c4.43-1.15,8.43-2.21,13.06-.07,2.7,1.25,13.47-7,14.72-10.54a59,59,0,0,0-5.88.9,15,15,0,0,1-5.91.5c-8-1.18-8-1.18-5.92-8.91a2.46,2.46,0,0,1,1.79,2.26c-.55,1-1.7,2.21-.17,2.87,1.31.57,3.32,1.71,4.38-.43a3.7,3.7,0,0,1,4.37-2.29c3.66.46,6-1.29,7.12-4.79.42-1.24,1.39-2.56-.45-3.51Zm7.86,29.4c.74,0,1.21-.2,1-1.07l.15.16c1.59-.9,3-2,3-4l-.07-.06c1.23-.2,1.57-.87,1.08-2H181c3.59-3.42,3.69-7.79,2.84-12.14-.61-3.06-2.43-3.56-4.82-1.86l-.21,2.87c-.29.38-.87.8-.82,1.13.73,5.24.14,9.81-4.77,13.2-1,.69-2.39,3.47-.35,5.43,1.3,0,2.54-.16,3.09-1.62Zm43,52.77-.49-.37.37.48c0,.63,0,1.25-.05,1.87-.64.15-1.35.26-1.46,1.07,0,.16.37.56.54.54.8-.08,1-.74,1.14-1.4.49-.3,1.31-.53,1.4-.92C220.54,152.23,219.6,152.13,218.87,152ZM108.48,274.71l-6.68,2c.15.41.29.81.43,1.22,2.27-.86,4.74-1,6.78-2.64l.83-.8C109.26,273.88,108.86,274.22,108.48,274.71Zm-7.59-156.78h0c-2.46-3.19-4.42-2.87-7.28,1.19-.81,1.9.22,2.82,1.86,3.24a4.36,4.36,0,0,0,5.37-2.36C101.36,119.31,102.65,118.62,100.89,117.93ZM204.7,140.25h0c1.49,1.54,3.4,1,5.14.88a13.86,13.86,0,0,1,8.05,2c.86.52,1.56,2,2.86.92a3.34,3.34,0,0,0,1.23-3.56,34.36,34.36,0,0,0-1.77-4c.23-.47.46-.95.7-1.42,4.76-3.19.95-6-.44-8.83,1.63-5.53-.06-8.48-5.75-10.26-1.84-.58-3.79-.87-5.07.58-1.1,1.24.29,2.77.74,4.1a52.32,52.32,0,0,0,2.18,4.84c0,.74,0,1.49,0,2.23l-.57,1.44L210.58,131a14.9,14.9,0,0,1-3.38.2c-4.72-.75-3.64,1.47-2.13,4L204,137.11C202.8,138.49,203.5,139.43,204.7,140.25Zm-62.54-12c-2.86-4.57-4.35-4.93-7.21-1.71-.16,3.46,1.79,5.24,4.94,5.38C142.19,132,142.9,130.39,142.16,128.23ZM41.83,41l-.06.06c-.32,0-.87-.07-.91,0C39.77,44.23,43.25,53.93,46,55.45c.1.06.48-.37.74-.58,5-1.29,8.42-4.94,11.94-8.38.72-.71,1.27-1.59.28-2.55s-1.73-.59-2.6.12c-4,3.3-7,1.07-9.59-2.08-.9-1.08-1.63-2.07-3.2-1.76C42.81,40,42,39.8,41.83,41ZM185.7,124l0-.14c-4.46,3.45-4.42,8.26-4,13.19a16,16,0,0,0,5.77,13.54c2.55,2.24,4,1.68,4.84-1.32.12-.78.23-1.56.35-2.34,1.26-5.9,0-12.67,5.81-17,.19-.14.14-.61.21-.92,1.29-1.43,1.32-3.32,1.52-5.46,1.88,1.69,3.28,3.1,4.86,4.29,1,.76,2.25,1.67,3.6.55s.94-2.3.44-3.63c-1-2.8-1.92-5.64-2.95-8.43-1.4-3.8-3.85-4.55-7.44-2.68-3.37,1.76-5.4,4.82-7.86,7.47a6.61,6.61,0,0,0-4.08,1.48ZM57.84,35.69a3.75,3.75,0,0,0-1.15-2.77c1.48-4.42,5.28-5.16,9.17-5.76,1.82-.15,4.4-.8,4.61-2,.41-2.38-1.83-4-3.8-5.19s-4.14-2.73-6.79-1.51c-2.38,1.2-4.51,2.7-7.56,2.49-2.2-.16-4.5,1-4.37,4.1l-1.12,1.47C44,26,41.14,26.23,40.22,29.3c-.72,2.37,2.06,2.29,3.49,3.06,2.16,2.31,3.6,5.1,5.22,7.78,2.32,3.84,4.16,3.67,6.73-.31L58,39.62c1.33.86,2.63,3.19,4.21.57,1.43-2.38-1.57-1.62-2.25-2.61A10.89,10.89,0,0,0,57.84,35.69ZM75.87,49a3.67,3.67,0,0,0-.65-3.24c1.38-3.36,3.1-6.62,3.28-10.35.24-5-2.11-7.06-7-6.19-2.12.38-4.22.89-6.34,1.24-1.91.32-4.58-.05-4.89,2.35s2,3.09,4.06,3.58l2.6,1.88C62.74,44.79,59.25,52.2,51.77,56a2.81,2.81,0,0,0-2,1.68c-.82.37-2.31.11-2.13,1.51a4.6,4.6,0,0,0,3.43,3.85,17.23,17.23,0,0,0,14.67-1.8C71,58.7,76.09,56.06,75.87,49Zm25-2.89c-1.29-.19-1.77.7-2.09,1.66-1.89,5.6-3,11.53-7.44,16a2.66,2.66,0,0,0-.11,3.57c6.32-5.72,7.62-13.65,9.58-21.28l.14-.36Zm106.74,62.67c.28-1.44.61-2.87.84-4.32.26-1.67-.5-2.62-2.18-2.2-4.21,1-8.77.9-12.47,3.66-1.39,1.57-1.09,3.43-.69,5.18.26,1.17,1.24,2.36,2.52,1.31a9.94,9.94,0,0,1,10.24-1.76C206.88,111,207.63,110,207.61,108.78ZM107.37,41.33c-3.07,2.67-6.88,14.79-5.84,19.42a11.68,11.68,0,0,0,1.1-2.51c.71-4.87,3.36-5.16,7.27-3.43,1.54.69,3.25,1.94,5.41.85-8.6-6.41-8.6-6.41-7.36-13.49.2-.23.61-.53.56-.66C108.27,40.86,107.8,41.11,107.37,41.33Zm102.9,104c-.6-2.25-2.44-.93-3.69-1.24-2.68-.65-5-1.68-5.79-4.62-.46-1.62.88-4.5-1.37-4.64s-1.61,3.17-2.78,4.68a3,3,0,0,0-.49,2.81c-.93,11.16-.7,11.27,10.24,8.7C209.74,150.25,211.48,149,210.27,145.34ZM179.86,44l0,0c.63-2.41-1.39-3.48-2.64-4.74C164.75,26.67,149.68,20,131.82,20c-8.81,0-17.47.56-24.95,6-2.63,1.62-5,3.42-4.93,7-1.18,2.17-1.92,4.54.07,6.45,1.78,1.71,3.31-.54,4.94-1,2.08-.61,4.15-1.24,6.17-2,1.67-.63,3.91.18,5.06-1.61s1.2-4.54,4.38-3.36c2,.75,3.94,1.77,6,2.49,11,3.93,22.27,6.82,33.22,10.85,3,1.1,8.7,1.09,8.5,3.38-.48,5.5,4.85,4.44,6.14,7.34a1.28,1.28,0,0,1,0,1c-1.26,2.83.3,5,2.57,5.42,3.15.57,3.9-2.42,4.46-4.9a19.51,19.51,0,0,0,.24-3c1.18-3.71-.82-6.4-2.9-9.07C180.7,44.42,180.94,43.63,179.86,44ZM100.71,245.2c-10,1.75-11.79,3.34-13.06,11.93a21.19,21.19,0,0,0-.11,6.41c1.21,8,5,11,13.22,10.47,11.39-2.42,19.48-11.12,19.89-21.83.14-3.73.5-7.22,2.38-10.54,1.63-2.89,1-5.81-.85-8.48-1.2-1.78-2.32-2.85-3.92-.17C114.27,239.68,108,243.24,100.71,245.2ZM98.77,127.1c-.58-3.87-4.53-.78-6.08-2.94-.51-.71-1.75-1.84-2.84-.33a2.74,2.74,0,0,0,0,2.82,2,2,0,0,0,2.81,1.17c2-.68,4-1.52,6.22-.78-3.89,1.63-7.57,6.86-11.92.63-.51-.73-1.37-.33-2.21.09-6.67,3.33-8.63,9.33-9.64,16.25a7.09,7.09,0,0,0,1.74-.42c17.92-11.64,36.49-11.74,55.51-3.07,1.84.85,3.38,1.06,4.92-.29,0-.27.06-.46,0-.57a3.08,3.08,0,0,0-.62-.73c-4.22-3.44-8.22-6.88-5.94-13.33.85-2.41-1.34-3.09-3.09-3.63a87.2,87.2,0,0,0-16-3.34c-4.18-.46-5.34.53-6,3.89C104.81,126.3,102.57,127.84,98.77,127.1Zm8.77,29.44c1.21-3.79,2.24-7.65,3.69-11.35,1.25-3.15,0-3.68-2.8-3.72A47.55,47.55,0,0,0,74.7,154c-1.56,1.41-1.83,3-1.94,4.86a126.31,126.31,0,0,0,16.61,70.83c1.34,2.34,2.53,4.41,1.81,7.39-.85,3.48,1.24,5.25,4.66,5.51,8.12.6,18.11-5.86,21.22-13.72,1.43-2,1.68-4.51,0-5.93-5.54-4.65-6.54-11.35-8.33-17.58C104.06,189.23,104.78,172.89,107.54,156.54ZM79.93,69.34c1.57-8.21,1-17,10.11-21.58.8-.41-.51-7.62-1.31-7.56-2.79.2-5.83.12-8.23,1.29-1.59.77-2.41,3.34-1.79,5.76a10.18,10.18,0,0,1-1.48,8.13A4.74,4.74,0,0,0,76.82,60C78,63.08,78.9,66.22,79.93,69.34Zm48.87,38.1a23.92,23.92,0,0,0,4.28-.63c1.65-.53,4.14-.8,4.33-2.67.23-2.3-2.11-4.55-3.89-4.49-6.17.24-11.72-2.58-17.71-2.88a4.85,4.85,0,0,0-1,.15c-2.31.37-2.74,1.35-1.31,3.32C117.27,105.45,122.77,106.78,128.8,107.44ZM111,84c-.16,2.07-.21,3.17-.34,4.27-.52,4.26-.17,7.54,5.64,5.89,2-.56,3.91.48,5.75,1.22,1.48.61,2.61,1.89,4.57,1.28,3.89-1.21,7.15.57,10.09,2.85,4.21,3.25,4.83,3.08,6.34-2.48-5.1.29-9.68-.57-12.26-5.64-.52-1-1.12-1.19-2.36-.86C119.15,93,117.38,92.38,111,84ZM86.14,58.12c3.13-3.49,3.18-3.74,5.14-3.38,1.28.23,2.24.73,2.59-1,.22-1.06,1.35-2.18.08-3.18-1.6-1.26-3.15-.48-4.58.44-4.9,3.13-7.51,14.08-4.87,20.6.67,1.64,1.55,4.12,3.55,3.26,1.34-.58,2.33-3.06,1-5.16-2-3.11-1.07-6,.77-8.81.67-1,2.54-1.75,1.63-3.26C90.27,55.79,88.63,57.35,86.14,58.12Zm8.66,56c3.52-1.45,6.32-.68,8.64,1.82.43.47,1.35,1,1.36.19,0-2.48,4.45-4.23,1.67-6.71-2.07-1.87-5-5-8-.44C97.47,110.56,95.49,111.46,94.8,114.1Zm78-21.92c2.51-3.43,5.73-23.32,4.07-25.51C176.22,75.29,170.1,82.57,172.84,92.18ZM40.49,36.74c-2.38-1.38-5.18-.41-5.21,2.49-.07,5.59.6,11.12,4.85,15.85C40.24,48.75,32.51,42.52,40.49,36.74ZM172.8,71.67c.75-2.81,1.5-5.62,2.4-9-4.72,2.25-8.08-2.28-13.22-1.25C166.7,64.38,171.52,66.12,172.8,71.67Zm26,84c3.33,1.29,3.33,1.29,10.22-.48,7.5-1.92,8-3.27,4-10-.24,7.18-.24,7.2-6.76,8.78C204,154.55,201.65,155,198.8,155.65ZM33.35,52.65l1.33-.34a55.07,55.07,0,0,1-1.34-5.61c-.5-3.72-1.22-7.51.24-11.18.28-.72,2.87-.77.63-2.12a1.91,1.91,0,0,0-3.06,1.38C30.39,40.94,30.05,47.09,33.35,52.65Zm100.27,70.06c2.22-1.13,4.59-.32,6.68-.83-.33-3.34-2.4-4.14-5-3.78S134,120.88,133.62,122.71Zm70.63,36.74c.08.4.17.79.25,1.19,3.8-.51,7.67-.83,10.22-4.67Zm-88.64-43.58c-2.48-2.14-2.63-4.88-5.17-4.26a3.22,3.22,0,0,0-1.39,2.83C110.18,116.91,112.41,115.7,115.61,115.87Zm-28.7-31.3c.46-3.13,2.37-7.28-3.64-7.63C84.6,79.72,85.75,82.15,86.91,84.57ZM71.14,19.26c2.11-1.33,4.43-2.5,5.06-5.15,0-.2-1.14-1-1.45-.91C72.28,14.32,72.08,17,71.14,19.26Zm31.71,104.82a4.56,4.56,0,0,0-.38-.78,2.58,2.58,0,0,0-1.22.54c-.37.41-.17.94.43.89C102.09,124.7,102.47,124.31,102.85,124.08ZM83.46,76.24c0-.29.11-.66,0-.8a.92.92,0,0,0-.81-.24c-.52.28-.45.7,0,1A2.26,2.26,0,0,0,83.46,76.24Z"/><path class="cls-1" d="M203.91,36.35c-4.59-.09-6.13-3.84-8.24-6.9-.63-7.66,9.05-17.8,16.48-17.26,6.13.44,10.71,9.19,7.25,14.24A22.81,22.81,0,0,1,203.91,36.35Zm-4.26-6.54c1.12,4.08,4,4,7.11,2.82a26,26,0,0,0,9-6.12c3-2.93,3.79-5.78.24-8.83a4.38,4.38,0,0,0-5.87-2.21,20.08,20.08,0,0,0-11.25,9.87A3.42,3.42,0,0,0,199.65,29.81Z"/><path class="cls-1" d="M193.21,240.75c-3.41.11-5.13-2.89-6.84-5.73s-1.11-5.74.65-8.34a26.61,26.61,0,0,1,8.25-7.8c6.93-4.22,13.31-1.79,15.56,6a7.25,7.25,0,0,1-.53,5.24C208.27,234.49,198.54,240.82,193.21,240.75Zm4.11-19.37a15.07,15.07,0,0,0-5.69,4.54c-1.76,2.34-4.7,4.54-2.18,8.1,1.7,4.18,4.57,4.7,8.34,2.75a35.47,35.47,0,0,0,8-5.74c3.25-3.09,3.63-6,.14-9.13C203.26,218.28,200.31,219.59,197.32,221.38Z"/><path class="cls-1" d="M27.7,220.63c0,4.75-6.35,10.63-11.44,10.63-5.62,0-12.33-7.25-12.48-13.48-.11-4.87,6.07-11,11-11C20.48,206.85,27.73,214.62,27.7,220.63ZM9,213.66c-3.34,3.62-2.91,7.32,1.35,11.77,4,4.21,6.25,4.35,10.8.68,4.06-2.75,5.07-6.06,1.89-10.15-2.66-3.55-4.84-8-10.63-5.44C10.81,211.09,10,212.46,9,213.66Z"/><path class="cls-1" d="M233.06,70c-.66,6.79-7.06,12.82-12.63,11.9-5.79-1-12.23-9.8-11.08-15.23,1.33-6.29,8.52-10.05,15.5-8.1C228.77,61.55,231.9,65.07,233.06,70Zm-4.8-3.27,0-.32A6.23,6.23,0,0,0,225,62.75l.05-.09c-4.79-3.62-5.74-3.52-10.3,1.07-3.84,4.1-3.72,7,.51,11.93,3.65,4.24,6.61,4.53,11.5,1.13.87-.64,1.89-1.13,2.09-2.35C231.13,71.67,230.6,69.13,228.26,66.74Z"/><path class="cls-2" d="M18.72,173c-2.93,3.42-5.95,2.81-9,.21l.43-.5c2.72.94,5.44,1.72,8-.31Z"/><path class="cls-2" d="M23,168.25l-1.19,1.84-.55-.49,1.29-1.74Z"/><path class="cls-2" d="M9.7,173.17,7.81,172l.51-.58,1.81,1.21Z"/><path class="cls-2" d="M19.81,172c-.37.3-.73.61-1.09.92l-.54-.6,1.08-.88Z"/><path class="cls-2" d="M20.83,171.06l-1,1-.55-.56,1-1Z"/><path class="cls-2" d="M7.81,172l-1-.95.49-.49,1.06.86Z"/><path class="cls-2" d="M21.85,170.09l-1,1-.54-.54,1-.91Z"/><path class="cls-2" d="M6.77,171.09l-1-.93.42-.44,1.12.88Z"/><path class="cls-3" d="M117.06,228.86c-3.11,7.86-13.1,14.32-21.22,13.72-3.42-.26-5.51-2-4.66-5.51.72-3-.47-5-1.81-7.39a126.31,126.31,0,0,1-16.61-70.83c.11-1.89.38-3.45,1.94-4.86a47.55,47.55,0,0,1,33.73-12.52c2.83,0,4,.57,2.8,3.72-1.45,3.7-2.48,7.56-3.69,11.35-.75,1.82-1.89,3.59-2.19,5.48-3.53,22.55-3,44.42,11,64C116.87,226.76,116.83,227.9,117.06,228.86Z"/><path class="cls-3" d="M159.92,168c-8.35,2.8-14.13,8.65-18,16.22-3.65,7.09-8.53,12.86-16,17,5-12.8,3.49-26.72,7.52-39.7l.67-1.26c.58-.51,1.12-1,.46-1.85l-1.1,1.2-.88,1.14c-4.5,4.52-1.55-2.39-3.62-2-1.88,4.48.81,9.57-1.09,14.26-.54,1.34-.37,2.95-.62,4.42-.48,2.92.48,6.39-3.9,7.56-4.8,1.29-9.45,1.77-14.11-.22-1.54-.66-1.31-2.14-1.3-3.46.17-12,1.38-23.79,5.43-35.22,1.3-3.68,2.9-4.76,6.48-3.27,2.22.92,4.59,1.5,7.27,2.35L122.72,150l-.93,1.06c-.45.17-1.08.27-.37.91.18-.24.36-.48.53-.73l1.3-.74,5.57-2.56c.74-.16,1.61,0,2-.93l-.09.06c.8-.14,1.74,0,2.09-1.06l-.09.06c2.94.15,5.47-1.29,8.16-2.1,11.34-3.43,18.79,1.83,19.09,13.6C160.08,161,160,164.52,159.92,168Z"/><path class="cls-4" d="M94.71,68.79c4.13,2.29,4.62,2.89,4.87,6.52a8.83,8.83,0,0,0,5.69,8c1.78.76,3.43,1.37,2.41,3.8-1,3.48-2.09,7,1.55,9.69l-.06-.07c-.29,1-.2,1.81,1,2.16l-.08-.12c-.12,1-.11,1.85,1.25,1.81l-.3.19.33-.14c-.18.69.11,1.07.78,1.22l-.07-.09c-.22,1.53.45,2.23,2,2.13l-.11-.08,1.19,1-.08-.09c0,1.6.49,2.45,2.18,1.4a.64.64,0,0,1,.7.35c-1.29,1.53,1.28,1.89.95,3.13,2.49,4.09,5.26,4.7,8.16,1.78,4.48-.88,9.31-.73,12.83-4.41,1.6-1.68,3.82-3.1,4.69-5.1,1.85-4.22,3.19-7.43,9.06-4.93,3.4,1.44,6.53-1.23,8.68-4.34,1.9-2.74,4.45-3.1,7.33-1.5-.55,3.77-2.46,7.31-1.91,11.26a.59.59,0,0,1-.31.64c-2.28-.42-2.71.48-1.69,2.39a.57.57,0,0,1-.37.51c-1.51-.55-1.3.49-1.28,1.37l0,0c-.79,0-1.94-.3-1.2,1.23l-1.06.58-.37-.1.3.19a.56.56,0,0,1-.55.7c-1.81-.86-2.94-.67-2.67,1.72l-.41.2c-1-.53-1.75-.71-1.78.8l-.24.09a1.43,1.43,0,0,0-2.26.49l.09,0c-1.22-.05-2.46-.14-3.21,1.13a18.57,18.57,0,0,1-8.27,1.18c-4.75-.11-9.33-.19-14.08,1.25-5.24,1.58-10.34,0-13.05-5.35-1.07-2.11-3.3-2-4.56-3.5l-1.1-.78.14.25c-.36-1.09-1.23-1.19-2.19-1.14l.13.16a2.45,2.45,0,0,0-3.22-2l.16.09a1.18,1.18,0,0,0-1.17-1.17l.19.18-.2.16c0-1.41-.87-1.5-1.93-1.34l.16.1a1.25,1.25,0,0,0-1.19-1.17l.09.2c.18-2.24-.84-3.29-3.09-3.12l.11.08c.13-1.07.1-2-1.41-1.83l.15-.3.3.14a1.1,1.1,0,0,0-1.25-1l.21.08a1.18,1.18,0,0,0-1.11-1.22l.12.14C91.69,85.77,91.14,77.27,94.71,68.79Z"/><path class="cls-5" d="M91.89,97c.85,1,1.68,2,2.56,3,4.51,5,4.49,5,0,9.83-3.59,3.88-7.12,7.77-9,12.92-.5,1.39-2.24,2.34-3.42,3.49-.16-.17-.32-.33-.49-.49,1.53-3,.73-5.39-1.27-8.1a217.09,217.09,0,0,1-26.39-47.3c-1.31-3.25-1.06-4.45,2.75-4.24,5.14.28,9.68-2,14.24-4C69.14,66,67.79,70,69.08,74.13c3,9.34,6.9,18.24,13.77,25.46,6.21,6.51,6.27,6.44,8.62-1.66A6.65,6.65,0,0,1,91.89,97Z"/><path class="cls-5" d="M183.61,54.05a19.51,19.51,0,0,1-.24,3c-.56,2.48-1.31,5.47-4.46,4.9-2.27-.4-3.83-2.59-2.57-5.42a1.28,1.28,0,0,0,0-1c-1.29-2.9-6.62-1.84-6.14-7.34.2-2.29-5.51-2.28-8.5-3.38-11-4-22.25-6.92-33.22-10.85-2-.72-3.94-1.74-6-2.49-3.18-1.18-3.28,1.65-4.38,3.36s-3.39,1-5.06,1.61c-2,.77-4.09,1.4-6.17,2-1.63.47-3.16,2.72-4.94,1-2-1.91-1.25-4.28-.07-6.45,3-1.64,5.9-3.86,9.15-4.83,23.13-6.94,43.77-2.18,62.08,13.55C177.36,45.34,179.66,50.35,183.61,54.05Z"/><path class="cls-6" d="M127.09,59.45,130,59c1,.56,3.12-.6,2.71,1.9a15,15,0,0,0-9.59,4c-1.46.43-2.12,1.61-2.7,2.87-3.23,6.68-1.34,11.15,6.72,15.84C134.64,88,141.8,87,145.89,81.05c.37-.82.74-1.65,1.1-2.47,3-4.52-.71-8.28-1.42-12.38,1.55-.82,2.09,1,3.23,1.24L150,71.35c.29.5.59,1,.89,1.5l0,3c-2.1,7.73-2.1,7.73,5.92,8.91a15,15,0,0,0,5.91-.5,59,59,0,0,1,5.88-.9c-1.25,3.57-12,11.79-14.72,10.54-4.63-2.14-8.63-1.08-13.06.07-3.09.8-5.92-.66-7.68-3.47s-3.66-3.69-7-2.19c-4.74,2.15-8.72.65-11.63-4.5-1.33-2.34-2.66-3-5-2.74-1.49.16-3.25.21-4.17-1.12-3.59-5.2-4.5-11.53-7.62-17.06,5,2.3,8.46,6.16,13.17,8.25,3.31,1.47,5.84,2.74,6.38-2.48.12-1.23,1-2.39,1.55-3.58a17.92,17.92,0,0,1,6.79-5.25Z"/><path class="cls-3" d="M98.77,127.1c3.8.74,6-.8,6.82-4.58.68-3.36,1.84-4.35,6-3.89a87.2,87.2,0,0,1,16,3.34c1.75.54,3.94,1.22,3.09,3.63-2.28,6.45,1.72,9.89,5.94,13.33a3.08,3.08,0,0,1,.62.73c.07.11,0,.3,0,.57-1.54,1.35-3.08,1.14-4.92.29-19-8.67-37.59-8.57-55.51,3.07a7.09,7.09,0,0,1-1.74.42c1-6.92,3-12.92,9.64-16.25.84-.42,1.7-.82,2.21-.09,4.35,6.23,8,1,11.92-.63Z"/><path class="cls-7" d="M115.66,12.88c6.9-6.21,15.4-8.56,24.28-9.83C160.09.16,177,13.28,185.63,32.53c3.88,8.66,7.21,17.6,6.3,27.4-.3,3.26-.39,6.67-3,9.24l.24-3c1.33-4,1-8.27.49-12.31-.76-6.24-1.33-13.33-5.49-17.78-4.65-5-10.54-9-15.37-14-6.92-12.52-16.39-15.72-30.1-10.16-.94-1.36-2.37-.89-3.62-.88C128.58,11,121.9,9.76,115.66,12.88Z"/><path class="cls-8" d="M176.53,184.26c-9-.85-16.13,2.6-21.27,9.88-2.53,3.59-7.08,5.38-8.47,9.89h0c-6,1.78-10.23,6.42-15.59,9.21-2.47-3.14-.8-6.85-1.43-10.25l0,0,1.05-1.15c4.63-3.94,9-8.12,11.45-13.85a1.6,1.6,0,0,0,1.53-2l0,0c.7,0,1-.35,1-1h0c.69,0,1-.35,1-1h0c1.14-.25,1.35-1,1-2l0,0c2.34-.41,4,2.68,5.92,1.82,5.61-2.54,12.06-2.84,17.23-5.88,2.8-1.65,3.14-.76,4.33.95S176.67,182.08,176.53,184.26Z"/><path class="cls-8" d="M100.71,245.2c7.32-2,13.56-5.52,17.55-12.21,1.6-2.68,2.72-1.61,3.92.17,1.8,2.67,2.48,5.59.85,8.48-1.88,3.32-2.24,6.81-2.38,10.54-.41,10.71-8.5,19.41-19.89,21.83-1.52-2.22-5.47.08-6.45-3.43,3.81-1.5,7.51-2.9,9.66-6.7C107.51,257.62,106.66,252.39,100.71,245.2Zm8.82,7.15c-1.86.73-1.81,2.43-1.75,4.07,0,1.08-.14,2.74,1.69,2.13a3.46,3.46,0,0,0,2.33-3.92A2.21,2.21,0,0,0,109.53,252.35Z"/><path class="cls-9" d="M182.14,197.12c-.93,5.58-5,8.4-9.55,10.75-6.52,3.4-13.64,5.24-20.58,7.52-1.32-1.7-2.94-2.76-5.21-2.36l0,0c1.11-1.36-3.27-2.49-.21-3.86,7-3.14,12-8.89,17.92-13.39C171.78,190.32,176.14,190.64,182.14,197.12Z"/><path class="cls-10" d="M100.71,245.2c6,7.19,6.8,12.42,3.26,18.68-2.15,3.8-5.85,5.2-9.66,6.7,1,3.51,4.93,1.21,6.45,3.43-8.26.54-12-2.47-13.22-10.47a21.19,21.19,0,0,1,.11-6.41C88.92,248.54,90.66,247,100.71,245.2Z"/><path class="cls-11" d="M128.58,53.15,120,47.4c4.26,0,6.7,1.59,9.35,2.27,1.18.3,2.95.76,3-.44.19-3.81,4-5.27,5-8.44.55-1.73,1.9-.72,2.69-.48,4.76,1.47,9.46,3.11,14.17,4.68-.54,2.09-2.75,1.56-3.64,3.44l5.57.83c-9.77,7.57-9.67,10,1,20.49-2.89,0-5.06-1.14-7.27-2.15-1.08-2.37-2.41-4.63-2-7.44a2.61,2.61,0,0,0-2.06-3C140.08,55.5,134.72,52.66,128.58,53.15Z"/><path class="cls-12" d="M91.89,97a6.65,6.65,0,0,0-.42.9c-2.35,8.1-2.41,8.17-8.62,1.66C76,92.37,72,83.47,69.08,74.13c-1.29-4.1.06-8.13,1.79-11.95l.91-.49c3.28,7.51,5.65,15.43,9.79,22.55,1.07,1.83,1.37,4.54,4.29,4.76h0c-.34,1.67-.2,3,2,3h0c-.26,1-.07,1.72,1,2l0,0a1.34,1.34,0,0,0,1.49,1.08Z"/><path class="cls-2" d="M65.74,61.25a17.23,17.23,0,0,1-14.67,1.8,4.6,4.6,0,0,1-3.43-3.85c-.18-1.4,1.31-1.14,2.13-1.51,2.91,2.59,5.54,1.62,8.08-.61l.45-.53-.53.45c-2-.65-4.26.9-6-1,7.48-3.81,11-11.22,15.16-17.74l-2.6-1.88c4.71-.31,5.79.71,4.64,4.4C67.34,46,68,46.9,73.79,47a14.93,14.93,0,0,1-6.9,6.1c-.9.44-2.57.75-1,2.32C65.86,57.38,65.8,59.31,65.74,61.25Z"/><path class="cls-12" d="M159.7,142.37c-1.24-.8-2.44-2.22-3.73-2.32-10.34-.83-9.65-9.15-11.15-16l0,0c2.32-.37,2.76,1.67,3.78,3l1.3,1,0,0c0,.67.33,1,1,1h0a.89.89,0,0,0,1,1l0,0c2.93,4.88,8.55,6.59,15.11,4.55,3.93-1.22,7.85-2.5,11.78-3.76-.06,1.42-.11,2.83-.17,4.25-.11.11-.32.23-.31.31a4.49,4.49,0,0,0,.29.77c0,.63,0,1.26.05,1.89-4.23,3-9,3.37-14,3.13C162.93,141,160.92,140.37,159.7,142.37Z"/><path class="cls-8" d="M183.61,54.05c-4-3.7-6.25-8.71-10.44-12.31C154.86,26,134.22,21.25,111.09,28.19c-3.25,1-6.11,3.19-9.15,4.83-.08-3.54,2.3-5.34,4.93-7a13.75,13.75,0,0,0,4.38-.74,67.57,67.57,0,0,1,42.19,1.29C163.64,30.25,172,36.79,179.89,44l0,0c-.06.63.29.9.85,1C182.79,47.65,184.79,50.34,183.61,54.05Z"/><path class="cls-10" d="M176.53,184.26c.14-2.18-1.14-3.73-2.28-5.38s-1.53-2.6-4.33-.95c-5.17,3-11.62,3.34-17.23,5.88-1.9.86-3.58-2.23-5.92-1.82,3.91-6.85,9.49-11.5,17.61-11.59,6.54-.06,12.63,5.14,14.68,11.49.34,1,1.28,2.3.14,3.16C178.4,185.65,177.34,184.87,176.53,184.26Z"/><path class="cls-13" d="M190.89,121.11c2.46-2.65,4.49-5.71,7.86-7.47,3.59-1.87,6-1.12,7.44,2.68,1,2.79,1.92,5.63,2.95,8.43.5,1.33.79,2.6-.44,3.63s-2.59.21-3.6-.55c-1.58-1.19-3-2.6-4.86-4.29-.2,2.14-.23,4-1.52,5.46-3.44,1.39-6.64.3-9.81-1C188.72,125.48,190.28,123.43,190.89,121.11Z"/><path class="cls-7" d="M179.89,44c-7.87-7.23-16.25-13.77-26.45-17.41a67.57,67.57,0,0,0-42.19-1.29,13.75,13.75,0,0,1-4.38.74c7.48-5.46,16.14-6,24.95-6,17.86,0,32.93,6.63,45.43,19.24C178.5,40.54,180.52,41.61,179.89,44Z"/><path class="cls-5" d="M159.7,142.37c1.22-2,3.23-1.35,4.91-1.26,5,.24,9.78-.12,14-3.13L182,148.91c-5.88,1.05-11.3,4.51-17.6,3.3A50,50,0,0,0,159.7,142.37Z"/><path class="cls-13" d="M138.74,11.91c13.71-5.56,23.18-2.36,30.1,10.16l-.09,6.85-5.13-3.67c-.3-1.62-.68-3.23-.88-4.86-.49-4-1.84-6.2-6.09-3.24-1.6,1.11-3,1.4-4.52-.73-3.58-5.15-3.71-5.06-8.08-.76-.7.69-1.35,1.43-2,2.15l-7.31-.62C135.48,15,137.11,13.45,138.74,11.91Z"/><path class="cls-6" d="M146.8,213c2.27-.4,3.89.66,5.21,2.36l-.36,2c-1.07-.7-1.77-2.3-3.65-1.62.93,1.59,2.07,2.27,3.7,2.06a2,2,0,0,1-.72,2.4,28.19,28.19,0,0,1-3.12-1.39c-7.25-4.29-7.67-4.24-13.59,1.88a4.37,4.37,0,0,1-.84.51,1.61,1.61,0,0,1-.59-1.84l0-1.37-.06.08c1.73-1.2,3.48-2.36,5.17-3.62,1.18-.88,3.42-1.3,1.86-3.61,2.16-2.45,5.58-3.6,7-6.79h0l1.13.12c.07.53.34.82.87.57.09-.05,0-.48,0-.73l-.05,0c2,.75,3.05-.9,4.27-1.86,3.4-2.65,6.69-5.44,10-8.18,5.38-4.41,11.16-6.41,17.84-3l-.06-.06c0,.69.32,1.1,1,1.09l-.08-.08,1,1c.18,1.43.43,2.87-.64,4.11-6-6.48-10.36-6.8-17.6-1.31-5.94,4.5-10.94,10.25-17.92,13.39-3.06,1.37,1.32,2.5.21,3.86l-3-.09-.54-.44.43.55a2.48,2.48,0,0,0,2,1.65C147,214.77,146.54,213.65,146.8,213Z"/><path class="cls-13" d="M73.79,47C68,46.9,67.34,46,69,40.79c1.15-3.69.07-4.71-4.64-4.4-2-.49-4.35-1.31-4.06-3.58s3-2,4.89-2.35c2.12-.35,4.22-.86,6.34-1.24,4.89-.87,7.24,1.2,7,6.19-.18,3.73-1.9,7-3.28,10.35Z"/><path class="cls-2" d="M188.91,128c3.17,1.27,6.37,2.36,9.81,1-.07.31,0,.78-.21.92-5.85,4.35-4.55,11.12-5.81,17-2.19-.92-2-3.66-4-5.54-.15,3.75.43,6.44,3.62,7.88-.85,3-2.29,3.56-4.84,1.32a16,16,0,0,1-5.77-13.54c3.3.46,4-1.79,4.54-4.3.67.61,1.42,1.73,1.73-.24C188.25,131,187.41,129.29,188.91,128Z"/><path class="cls-12" d="M168.75,28.92l.09-6.85c4.83,5,10.72,9,15.37,14,4.16,4.45,4.73,11.54,5.49,17.78.5,4,.84,8.26-.49,12.31-2.51-1-3.51-3-3.74-5.5C190.1,44.73,179.66,36.7,168.75,28.92Z"/><path class="cls-14" d="M117.06,228.86c-.23-1-.19-2.1-.72-2.84-14-19.58-14.52-41.45-11-64,.3-1.89,1.44-3.66,2.19-5.48-2.76,16.35-3.48,32.69,1.17,48.81,1.79,6.23,2.79,12.93,8.33,17.58C118.74,224.35,118.49,226.86,117.06,228.86Z"/><path class="cls-11" d="M128.8,107.44c-6-.66-11.53-2-15.28-7.2-1.43-2-1-2.95,1.31-3.32a4.85,4.85,0,0,1,1-.15c6,.3,11.54,3.12,17.71,2.88,1.78-.06,4.12,2.19,3.89,4.49-.19,1.87-2.68,2.14-4.33,2.67A23.92,23.92,0,0,1,128.8,107.44Z"/><path class="cls-12" d="M138.74,11.91c-1.63,1.54-3.26,3.08-4,5.28a73.22,73.22,0,0,0-28.72,5c-.09-1.16,1.36-1.95.77-3.22h0c1,.34,1.74.09,2-1l0,0a4.07,4.07,0,0,0,4-3l0,0a2.43,2.43,0,0,0,3-2l-.11-.08C121.9,9.76,128.58,11,135.12,11,136.37,11,137.8,10.55,138.74,11.91Z"/><path class="cls-8" d="M111,84c6.36,8.4,8.13,9,17.43,6.53,1.24-.33,1.84-.17,2.36.86,2.58,5.07,7.16,5.93,12.26,5.64-1.51,5.56-2.13,5.73-6.34,2.48-2.94-2.28-6.2-4.06-10.09-2.85-2,.61-3.09-.67-4.57-1.28-1.84-.74-3.79-1.78-5.75-1.22-5.81,1.65-6.16-1.63-5.64-5.89C110.81,87.15,110.86,86.05,111,84Z"/><path class="cls-4" d="M128.58,53.15c6.14-.49,11.5,2.35,17.12,4a2.61,2.61,0,0,1,2.06,3c-.38,2.81,1,5.07,2,7.44l-1-.16c-1.14-.24-1.68-2.06-3.23-1.24l.17-.08c.37-1-.21-1.15-1-1l.08.06c-.53-1.81-1.84-2.31-3.56-2.11a18.55,18.55,0,0,0-8.5-2.16c.41-2.5-1.76-1.34-2.71-1.9C130.57,56.77,129.05,55.09,128.58,53.15Z"/><path class="cls-6" d="M43.59,40.22c1.57-.31,2.3.68,3.2,1.76,2.6,3.15,5.55,5.38,9.59,2.08.87-.71,1.69-1,2.6-.12s.44,1.84-.28,2.55c-3.52,3.44-6.91,7.09-11.94,8.38a35.77,35.77,0,0,1-5-13.81l.06-.06Z"/><path class="cls-11" d="M86.14,58.12c2.49-.77,4.13-2.33,5.27-.46.91,1.51-1,2.22-1.63,3.26-1.84,2.81-2.79,5.7-.77,8.81,1.37,2.1.38,4.58-1,5.16-2,.86-2.88-1.62-3.55-3.26-2.64-6.52,0-17.47,4.87-20.6,1.43-.92,3-1.7,4.58-.44,1.27,1,.14,2.12-.08,3.18-.35,1.7-1.31,1.2-2.59,1C89.32,54.38,89.27,54.63,86.14,58.12Z"/><path class="cls-2" d="M48,25c-.13-3.05,2.17-4.26,4.37-4.1,3,.21,5.18-1.29,7.56-2.49,1.12,3.51,5.61,4.71,6,8.73-3.89.6-7.69,1.34-9.17,5.76C55.35,28.55,52.8,25.52,48,25Z"/><path class="cls-6" d="M196.15,142.33a3,3,0,0,1,.49-2.81c1.17-1.51.63-4.82,2.78-4.68s.91,3,1.37,4.64c.83,2.94,3.11,4,5.79,4.62,1.25.31,3.09-1,3.69,1.24-2.08,5.45-6.92,5.19-11.2,4.69s-1.18-4.68-2.45-6.85C196.45,142.9,196.31,142.61,196.15,142.33Z"/><path class="cls-12" d="M142,17.81c.68-.72,1.33-1.46,2-2.15,4.37-4.3,4.5-4.39,8.08.76,1.49,2.13,2.92,1.84,4.52.73,4.25-3,5.6-.8,6.09,3.24.2,1.63.58,3.24.88,4.86A75.79,75.79,0,0,0,142,17.81Z"/><path class="cls-13" d="M220.16,136.41a34.36,34.36,0,0,1,1.77,4A3.34,3.34,0,0,1,220.7,144c-1.3,1.08-2-.4-2.86-.92a13.86,13.86,0,0,0-8.05-2c-1.74.08-3.65.66-5.14-.88,5.72,1.22,4-3.07,4.33-5.86C213.22,132.23,216.64,134.57,220.16,136.41Z"/><path class="cls-6" d="M83.44,37.59c-2.75.67-2.53-1.32-2.44-2.91.22-3.65-.89-6.32-4.55-7.73-1.41-.54-1.3-.83.87-2.39l.09-.06.81-.64c.51-.26,1.4.2,1.55-.78l.09-.06c.77-.05,1.75.29,1.91-1l.06,0c5.21.56,3.9,5.19,4.93,8.22C87.87,33.45,87.4,36.42,83.44,37.59Z"/><path class="cls-3" d="M79.17,145.42c13.84-9.93,28.87-10.75,44.64-5.74,2,.66,4.06,1.48,6.06,2.29.38.15.62.62.89,1.69-17.4-6.58-34.29-6.54-50.54,2.82C79.86,146.13,79.51,145.78,79.17,145.42Z"/><path class="cls-14" d="M159.92,168c0-3.49.16-7,.07-10.48-.3-11.77-7.75-17-19.09-13.6-2.69.81-5.22,2.25-8.16,2.1,2.14-2,5-2.6,7.6-3.49,13-4.38,20.95,1,21.48,14.71C162,160.79,164,165.07,159.92,168Z"/><path class="cls-5" d="M100,28.27c-.39,4.31-2.52,8.32-.54,13.06,1,2.28-3.25,4-4.23,7.09-4.57-5.33-3.23-10.33-1-15.37,1.28-.11,1.76-.82,1.52-2l0,0c2.17,0,2.46-1.26,2-3h0Z"/><path class="cls-15" d="M125.57,59.82a17.92,17.92,0,0,0-6.79,5.25c-1.59-.44-2.53.3-3.06,1.72-.64,1.7-1.32,2.92-3.58,1.87-2-.93-2.07-2.12-1.43-3.92a6.14,6.14,0,0,0-.19-2.41,3.51,3.51,0,0,0,2.15-2.14c1.38-.41,3.22.78,4.14-1.2l0,0,1-.8a.71.71,0,0,1,.5-.6,4.94,4.94,0,0,0,5.39-2.4l1.32-.54,0,.16Z"/><path class="cls-11" d="M180.89,191c-6.68-3.45-12.46-1.45-17.84,3-3.34,2.74-6.63,5.53-10,8.18-1.22,1-2.26,2.61-4.27,1.86,4.06-4.1,8-8.39,12.23-12.26,4.67-4.23,10.19-6.18,16.47-4C178.91,188.32,181.23,188.4,180.89,191Z"/><path class="cls-9" d="M133.43,221.18a4.37,4.37,0,0,0,.84-.51c5.92-6.12,6.34-6.17,13.59-1.88a28.19,28.19,0,0,0,3.12,1.39C144.82,225,138,225.34,133.43,221.18Z"/><path class="cls-2" d="M212.52,125.42a52.32,52.32,0,0,1-2.18-4.84c-.45-1.33-1.84-2.86-.74-4.1,1.28-1.45,3.23-1.16,5.07-.58,5.69,1.78,7.38,4.73,5.75,10.26C217.76,126.14,215.47,122.24,212.52,125.42Z"/><path class="cls-15" d="M161.82,51.49c.14-3.22,2.62-3.18,4.5-2.57,2.94,1-.14,3.36.69,5-.73,2.1-3.29,2.21-4.31,4L159.86,60l-6.21,3.23a2.68,2.68,0,0,1-1.75-3.12c2.41-1.57,4.8-3.17,7.23-4.72,1.89-1.2.2-1.14-.48-1.45C159.49,52.82,161.79,53.64,161.82,51.49Z"/><path class="cls-11" d="M108,42.17c-1.24,7.08-1.24,7.08,7.36,13.49-2.16,1.09-3.87-.16-5.41-.85-3.91-1.73-6.56-1.44-7.27,3.43a11.68,11.68,0,0,1-1.1,2.51c-1-4.63,2.77-16.75,5.84-19.42Z"/><path class="cls-6" d="M207.61,108.78c0,1.2-.73,2.21-1.74,1.87a9.94,9.94,0,0,0-10.24,1.76c-1.28,1-2.26-.14-2.52-1.31-.4-1.75-.7-3.61.69-5.18,2.55.45,5-.56,7.21-1.29C205.25,103.27,207.58,103.93,207.61,108.78Z"/><path class="cls-15" d="M168.38,73.46c-1.09,3.5-3.46,5.25-7.12,4.79a3.7,3.7,0,0,0-4.37,2.29c-1.06,2.14-3.07,1-4.38.43-1.53-.66-.38-1.91.17-2.87,2.08-1.3,4.77-1.66,6.15-4,3-.57,5.34-2.6,7.91-4.1l1.31-.16-.12.15A4.77,4.77,0,0,0,168.38,73.46Z"/><path class="cls-2" d="M55.66,39.83c-2.57,4-4.41,4.15-6.73.31-1.62-2.68-3.06-5.47-5.22-7.78,1.29-2.29,2.65-1,4,0,1.95,1.39,3.91,2.36,6.2.73C55.51,35,55.64,37.41,55.66,39.83Z"/><path class="cls-3" d="M94.8,114.1c.69-2.64,2.67-3.54,3.7-5.14,2.92-4.52,5.9-1.43,8,.44,2.78,2.48-1.65,4.23-1.67,6.71,0,.86-.93.28-1.36-.19C101.12,113.42,98.32,112.65,94.8,114.1Z"/><path class="cls-10" d="M172.84,92.18c-2.74-9.61,3.38-16.89,4.07-25.51C178.57,68.86,175.35,88.75,172.84,92.18Z"/><path class="cls-13" d="M212.52,125.42c2.95-3.18,5.24.72,7.9.74,1.39,2.88,5.2,5.64.44,8.83-2.4-4-6.19-4.36-10.28-4l1.41-1.93a1.09,1.09,0,0,0,.57-1.44C212.54,126.91,212.53,126.16,212.52,125.42Z"/><path class="cls-5" d="M185.47,60.69c.23,2.52,1.23,4.52,3.74,5.5l-.24,3c-.36,1.79-1.71,2.81-3.08,3.76s-2.64,1.73-4.16.95c-1.77-.92,0-2.46-.33-3.47C179.85,65.85,182.59,63.28,185.47,60.69Z"/><path class="cls-16" d="M120.7,37c.82-1.85,2.25-2.23,4.06-1.68s1.16,1.81.93,2.86c-.65,2.94,2.5,2.62,3.52,4.15.65,1,2.26,1.14,1.11,3-1,1.62-1.83,1.31-3.13.79-2.6-1-5.22-2.32-8.11-.91-.35-1.5.85-1.86,1.74-2.57,1.38-1.08,4.78-1,3.63-3.52-.77-1.69-2.94,1.37-4.74.69C120.44,39,121.11,38.21,120.7,37Z"/><path class="cls-11" d="M172.86,100.81c-2-2-.64-4.74.35-5.43,4.91-3.39,5.5-8,4.77-13.2,0-.33.53-.75.82-1.13,2.35,1.27,1.37,4.21,2.93,5.88.13,1.81-1.5,3.36-.74,5.25h.11c-1.28.17-1.4,1-1.08,2l.07.06c-2.09.54-3.36,1.68-3,4l-.15-.15a1,1,0,0,0-1,1.06h0C174.4,98.73,173.56,99.65,172.86,100.81Z"/><path class="cls-7" d="M85.86,89c-2.92-.22-3.22-2.93-4.29-4.76-4.14-7.12-6.51-15-9.79-22.55,1.2-2,2.25-1.84,2.85.34C77.2,71.51,81.89,80.11,85.86,89Z"/><path class="cls-13" d="M53.87,33.05c-2.29,1.63-4.25.66-6.2-.73-1.31-.94-2.67-2.25-4,0-1.43-.77-4.21-.69-3.49-3.06.92-3.07,3.8-3.27,6.61-2.81C49.81,28,53,29.3,53.87,33.05Z"/><path class="cls-7" d="M178.76,130.76c-3.93,1.26-7.85,2.54-11.78,3.76-6.56,2-12.18.33-15.11-4.55,8.44,4.64,16.65,2.75,24.84-.76C178,128.65,180.41,127.19,178.76,130.76Z"/><path class="cls-7" d="M100.81,46.06c-2,7.63-3.26,15.56-9.58,21.28a2.66,2.66,0,0,1,.11-3.57c4.43-4.47,5.55-10.4,7.44-16,.32-1,.8-1.85,2.09-1.66Z"/><path class="cls-16" d="M40.49,36.74c-8,5.78-.25,12-.36,18.34-4.25-4.73-4.92-10.26-4.85-15.85C35.31,36.33,38.11,35.36,40.49,36.74Z"/><path class="cls-16" d="M83.44,37.59c4-1.17,4.43-4.14,3.32-7.36-1-3,.28-7.66-4.93-8.22.63-1.24,1.79-1.84,3.39-2.74A77.73,77.73,0,0,1,88.8,31.55C89.78,36.3,88,38.05,83.44,37.59Z"/><path class="cls-13" d="M65.86,27.16c-.37-4-4.86-5.22-6-8.73,2.65-1.22,4.72.23,6.79,1.51s4.21,2.81,3.8,5.19C70.26,26.36,67.68,27,65.86,27.16Z"/><path class="cls-13" d="M65.74,61.25c.06-1.94.12-3.87.17-5.8,4.12-.93,7.7-2.66,10-6.45C76.09,56.06,71,58.7,65.74,61.25Z"/><path class="cls-11" d="M172.8,71.67c-1.28-5.55-6.1-7.29-10.82-10.27,5.14-1,8.5,3.5,13.22,1.25C174.3,66.05,173.55,68.86,172.8,71.67Z"/><path class="cls-9" d="M210.58,131c4.09-.39,7.88,0,10.28,4-.24.47-.47.95-.7,1.42-3.52-1.84-6.94-4.18-11.18-2-1.46-.49-2.58.66-3.91.82-1.51-2.51-2.59-4.73,2.13-4A14.9,14.9,0,0,0,210.58,131Z"/><path class="cls-16" d="M196.15,142.33c.16.28.3.57.47.85,1.27,2.17-1.74,6.35,2.45,6.85s9.12.76,11.2-4.69c1.21,3.61-.53,4.91-3.88,5.69C195.45,153.6,195.22,153.49,196.15,142.33Z"/><path class="cls-15" d="M119.71,39.84c1.8.68,4-2.38,4.74-.69,1.15,2.53-2.25,2.44-3.63,3.52-.89.71-2.09,1.07-1.74,2.57l0,0c-3.31-.57-5.5,2-8.27,2.94-1.24-1.23-1-2.58-.31-4l1.38-.34.69.36.21-1.25h0a9.74,9.74,0,0,0,7.08-3Z"/><path class="cls-9" d="M53.87,33.05c-.89-3.75-4.06-5-7-6.56L48,25c4.85.5,7.4,3.53,8.74,7.9a3.75,3.75,0,0,1,1.15,2.77L58,39.62l-2.36.21C55.64,37.41,55.51,35,53.87,33.05Z"/><path class="cls-6" d="M198.8,155.65c2.85-.63,5.17-1.1,7.47-1.66,6.52-1.58,6.52-1.6,6.76-8.78,4,6.69,3.49,8-4,10C202.13,156.94,202.13,156.94,198.8,155.65Z"/><path class="cls-2" d="M118.85,109.64c.33-1.24-2.24-1.6-.95-3.13,7.23,3.73,14.56,3,21.94.5-3.52,3.68-8.35,3.53-12.83,4.41C124.11,111.67,121.46,110.74,118.85,109.64Z"/><path class="cls-6" d="M33.35,52.65c-3.3-5.56-3-11.71-2.2-17.87a1.91,1.91,0,0,1,3.06-1.38c2.24,1.35-.35,1.4-.63,2.12-1.46,3.67-.74,7.46-.24,11.18a55.07,55.07,0,0,0,1.34,5.61Z"/><path class="cls-13" d="M186.28,132.76c-.49,2.51-1.24,4.76-4.54,4.3-.44-4.93-.48-9.74,4-13.19C186.45,126.8,185.17,129.85,186.28,132.76Z"/><path class="cls-12" d="M164.41,152.21c6.3,1.21,11.72-2.25,17.6-3.3,1.4,1.43-.2,1.44-.9,1.78-4.34,2.09-9.06,2.92-13.7,4C165.51,155.1,164.06,154.67,164.41,152.21Z"/><path class="cls-13" d="M94.71,68.79c-3.57,8.48-3,17,0,25.48C89,86.14,89,76.79,94.71,68.79Z"/><path class="cls-3" d="M134.8,133.08c2,.72,3.93,1.7,6.21,1.38,1-.15,2.21-1.23,3.17.11.78,1.09-.27,2-.73,2.63-.89,1.29-2.69,2.05-3.86,1.11-1.82-1.46-4.44-2.42-4.73-5.3Z"/><path class="cls-16" d="M207.61,108.78c0-4.85-2.36-5.51-6.6-4.15-2.25.73-4.66,1.74-7.21,1.29,3.7-2.76,8.26-2.61,12.47-3.66,1.68-.42,2.44.53,2.18,2.2C208.22,105.91,207.89,107.34,207.61,108.78Z"/><path class="cls-4" d="M181,92.18c-.76-1.89.87-3.44.74-5.25,1.61-3.7,1.09-6.74-2.72-8.75,2.39-1.7,4.21-1.2,4.82,1.86C184.68,84.39,184.58,88.76,181,92.18Z"/><path class="cls-9" d="M186.28,132.76c-1.11-2.91.17-6-.56-8.89l0,.14c1.15.13,1-.74,1.11-1.42a6.61,6.61,0,0,1,4.08-1.48c-.61,2.32-2.17,4.37-2,6.92-1.5,1.26-.66,3-.9,4.49C187.7,134.49,187,133.37,186.28,132.76Z"/><path class="cls-16" d="M41.77,41.06a35.77,35.77,0,0,0,5,13.81c-.26.21-.64.64-.74.58-2.77-1.52-6.25-11.22-5.16-14.35C40.9,41,41.45,41.07,41.77,41.06Z"/><path class="cls-3" d="M98.83,127c-2.19-.74-4.19.1-6.22.78a2,2,0,0,1-2.81-1.17,2.74,2.74,0,0,1,0-2.82c1.09-1.51,2.33-.38,2.84.33,1.55,2.16,5.5-.93,6.08,2.94Z"/><path class="cls-9" d="M75.87,49c-2.26,3.79-5.84,5.52-10,6.45-1.59-1.57.08-1.88,1-2.32a14.93,14.93,0,0,0,6.9-6.1l1.43-1.27A3.67,3.67,0,0,1,75.87,49Z"/><path class="cls-10" d="M129.78,203c.63,3.4-1,7.11,1.43,10.25-.7,2-1.83,2.62-2.85.4C126.63,209.88,125.76,206.06,129.78,203Z"/><path class="cls-16" d="M166.74,70c-2.57,1.5-4.87,3.53-7.91,4.1l-.48-.51,1-1.58c.37-.8.73-1.61,1.09-2.42L163,67.09c1.07,0,1.78,1.44,3,.78h0C165.43,68.85,166.63,69.21,166.74,70Z"/><path class="cls-16" d="M142.16,128.23c.74,2.16,0,3.78-2.27,3.67-3.15-.14-5.1-1.92-4.94-5.38C137.42,126.84,139.14,130.27,142.16,128.23Z"/><path class="cls-16" d="M100.88,120a4.36,4.36,0,0,1-5.37,2.36c-1.64-.42-2.67-1.34-1.86-3.24,2.38-.7,5.14,1,7.28-1.19h0C100.89,118.62,100.89,119.31,100.88,120Z"/><path class="cls-3" d="M133.62,122.71c.37-1.83-.89-4.23,1.73-4.61s4.62.44,5,3.78C138.21,122.39,135.84,121.58,133.62,122.71Z"/><path class="cls-6" d="M204.25,159.45,214.72,156c-2.55,3.84-6.42,4.16-10.22,4.67C204.42,160.24,204.33,159.85,204.25,159.45Z"/><path class="cls-16" d="M158.83,74.06c-1.38,2.38-4.07,2.74-6.15,4a2.46,2.46,0,0,0-1.79-2.26l0-3c2.47.44,4.86,1.92,7.49.69Z"/><path class="cls-2" d="M205.07,135.2c1.33-.16,2.45-1.31,3.91-.82-.32,2.79,1.39,7.08-4.33,5.86h0c.07-1.12.34-2.29-.74-3.14Z"/><path class="cls-16" d="M162.7,57.88c1-1.77,3.58-1.88,4.31-4,1.05,1.46,4.64,1.14,3.63,3.62-.86,2.12-3.44,1.81-5.55.77A8.79,8.79,0,0,0,162.7,57.88Z"/><path class="cls-15" d="M163,67.09l-2.56,2.46c-.66-2-2.35-3.09-3.75-4.45l3.15-2.3,1.91,1.84c0,.78.39,1.28,1.23,1.32l.1-.15C163,66.23,163,66.66,163,67.09Z"/><path class="cls-5" d="M115.61,115.87c-3.2-.17-5.43,1-6.56-1.43a3.22,3.22,0,0,1,1.39-2.83C113,111,113.13,113.73,115.61,115.87Z"/><path class="cls-16" d="M123.69,55.23a4.94,4.94,0,0,1-5.39,2.4c.69-1.8-.23-3.16-1.21-4.51l1.83-1c1,.12,1.73,1.55,3,.79h0C121.66,54.31,123.17,54.4,123.69,55.23Z"/><path class="cls-15" d="M118.92,52.11l-1.83,1-4.5-3a13.72,13.72,0,0,1,5.49-3l-.15,1.47A5.25,5.25,0,0,0,118.92,52.11Z"/><path class="cls-4" d="M142.16,128.23c-3,2-4.74-1.39-7.21-1.71C137.81,123.3,139.3,123.66,142.16,128.23Z"/><path class="cls-11" d="M139.77,210.82c1.56,2.31-.68,2.73-1.86,3.61-1.69,1.26-3.44,2.42-5.17,3.62C133.08,213.7,137.11,212.92,139.77,210.82Z"/><path class="cls-6" d="M179,78.18c3.81,2,4.33,5,2.72,8.75-1.56-1.67-.58-4.61-2.93-5.88Z"/><path class="cls-16" d="M112.67,60.19a3.51,3.51,0,0,1-2.15,2.14l-5.28-2.15.54-2.19h0Z"/><path class="cls-16" d="M158.65,53.9c.68.31,2.37.25.48,1.45-2.43,1.55-4.82,3.15-7.23,4.72,0-.66.07-1.33.11-2C154.07,56.43,155.46,53.75,158.65,53.9Z"/><path class="cls-16" d="M118.08,47.11a13.72,13.72,0,0,0-5.49,3,2.68,2.68,0,0,1-1.81-2c2.77-.93,5-3.51,8.27-2.94Z"/><path class="cls-16" d="M159.8,62.8l-3.15,2.3a4.22,4.22,0,0,1-3-1.91L159.86,60Z"/><path class="cls-2" d="M100.93,117.93c-2.14,2.17-4.9.49-7.28,1.19C96.51,115.06,98.47,114.74,100.93,117.93Z"/><path class="cls-6" d="M71.14,19.26c.94-2.28,1.14-4.94,3.61-6.06.31-.13,1.5.71,1.45.91C75.57,16.76,73.25,17.93,71.14,19.26Z"/><path class="cls-4" d="M158.35,73.55c-2.63,1.23-5-.25-7.49-.69L150,71.35c3.15-.3,6.12,2,9.34.62Z"/><path class="cls-4" d="M158.65,53.9c-3.19-.15-4.58,2.53-6.64,4.18.91-5.71,5.79-5.5,9.81-6.59C161.79,53.64,159.49,52.82,158.65,53.9Z"/><path class="cls-2" d="M58,39.62l-.18-3.93A10.89,10.89,0,0,1,60,37.58c.68,1,3.68.23,2.25,2.61C60.65,42.81,59.35,40.48,58,39.62Z"/><path class="cls-2" d="M167.69,102.4c-.55-4,1.36-7.49,1.91-11.26C170.43,95.14,170.22,99,167.69,102.4Z"/><path class="cls-9" d="M51.77,56c1.74,1.89,4,.34,6,1l.08.08c-2.54,2.23-5.17,3.2-8.08.61A2.81,2.81,0,0,1,51.77,56Z"/><path class="cls-4" d="M112.67,60.19,105.76,58c.32-2.62,1.94-1.09,2.88-.76,2.67.91,5.26,2,8.17,1.75C115.89,61,114.05,59.78,112.67,60.19Z"/><path class="cls-7" d="M100,28.27,97.77,28c.6-2.58,2.75-3.92,4.48-5.61l.94,1a1.62,1.62,0,0,0-.21.75L101.12,27,100,28.14Z"/><path class="cls-9" d="M192.35,149.28c-3.19-1.44-3.77-4.13-3.62-7.88,1.94,1.88,1.78,4.62,4,5.54C192.58,147.72,192.47,148.5,192.35,149.28Z"/><path class="cls-2" d="M109.23,96.82c-3.64-2.73-2.57-6.21-1.55-9.69Q108.46,92,109.23,96.82Z"/><path class="cls-9" d="M109,275.25c-2,1.64-4.51,1.78-6.78,2.64-.14-.41-.28-.81-.43-1.22l6.68-2Z"/><path class="cls-4" d="M125.57,59.82l-.51-5c2.91.54,2.1,2.74,2,4.6Z"/><path class="cls-7" d="M106.76,19c.59,1.27-.86,2.06-.77,3.22l-.08-.1-1,1h0l-1.68.31-.94-1C103.59,21,104.66,19.33,106.76,19Z"/><path class="cls-2" d="M120.7,37c.41,1.21-.26,2-1,2.84l.07.12-4.84.25c-.18-.23-.37-.45-.57-.67C116.17,37.93,119.27,39.53,120.7,37Z"/><path class="cls-4" d="M177.1,98.29c-.37-2.36.9-3.5,3-4C180.07,96.32,178.69,97.39,177.1,98.29Z"/><path class="cls-7" d="M112.77,15a4.07,4.07,0,0,1-4,3C109.06,15.61,110.59,14.85,112.77,15Z"/><path class="cls-4" d="M118.92,52.11a5.25,5.25,0,0,1-1-3.53c.74,2,3.38,2.22,4,4.32C120.65,53.66,120,52.23,118.92,52.11Z"/><path class="cls-13" d="M97.54,98.22c2.25-.17,3.27.88,3.09,3.12A6.55,6.55,0,0,1,97.54,98.22Z"/><path class="cls-9" d="M151.7,217.78c-1.63.21-2.77-.47-3.7-2.06,1.88-.68,2.58.92,3.65,1.62Z"/><path class="cls-13" d="M182.1,182.11c3.06,1.38,1.29,4,1.6,6.13C181.9,186.53,182.92,184.08,182.1,182.11Z"/><path class="cls-4" d="M123.69,55.23c-.52-.83-2-.92-1.77-2.34,1.7-.56,2.73,0,3.09,1.8Z"/><path class="cls-7" d="M97.76,28c.46,1.76.17,3-2,3A3,3,0,0,1,97.76,28Z"/><path class="cls-7" d="M115.77,13a2.43,2.43,0,0,1-3,2C112.88,13,114.06,12.58,115.77,13Z"/><path class="cls-2" d="M158.53,111.59c-.27-2.39.86-2.58,2.67-1.72Z"/><path class="cls-2" d="M165.69,105.43c-1-1.91-.59-2.81,1.69-2.39C166.82,103.84,166.26,104.64,165.69,105.43Z"/><path class="cls-2" d="M77.34,127.36c-.53-1.89-.15-3.33,2-3.91Z"/><path class="cls-2" d="M163,67.09c0-.43,0-.86.08-1.28,1.35.14,2.94,0,2.94,2.06C164.74,68.53,164,67.1,163,67.09Z"/><path class="cls-3" d="M102.85,124.08c-.38.23-.76.62-1.17.65-.6,0-.8-.48-.43-.89a2.58,2.58,0,0,1,1.22-.54A4.56,4.56,0,0,1,102.85,124.08Z"/><path class="cls-7" d="M87.86,92c-2.19,0-2.33-1.33-2-3A3.42,3.42,0,0,1,87.86,92Z"/><path class="cls-2" d="M111.85,43.86l-1.38.34a4.2,4.2,0,0,1,2.15-3.36l.72.74L112.7,43h0Z"/><path class="cls-6" d="M218.92,154.16c-.16.66-.34,1.32-1.14,1.4-.17,0-.56-.38-.54-.54.11-.81.82-.92,1.46-1.07Z"/><path class="cls-6" d="M218.7,154c0-.62,0-1.24.05-1.87l.12-.11c.73.16,1.67.26,1.45,1.27-.09.39-.91.62-1.4.92Z"/><path class="cls-2" d="M117.2,106.16c-1.69,1-2.17.2-2.18-1.4Z"/><path class="cls-9" d="M116.8,269a2.31,2.31,0,0,1,1.25-2.28s.35.18.34.27a2.34,2.34,0,0,1-1.57,2Z"/><path class="cls-13" d="M104.52,104.29a2.45,2.45,0,0,1,3.22,2A4.56,4.56,0,0,1,104.52,104.29Z"/><path class="cls-9" d="M113.15,272.48c-.57.69-1.34,2-2.05,1.08s.79-1.31,1.62-1.62C112.87,272.11,113,272.3,113.15,272.48Z"/><path class="cls-4" d="M172.86,100.81c.7-1.16,1.54-2.08,3.09-1.62C175.4,100.65,174.16,100.79,172.86,100.81Z"/><path class="cls-2" d="M150.72,114.25c.75-1.27,2-1.18,3.21-1.13C153.17,114.38,151.93,114.28,150.72,114.25Z"/><path class="cls-13" d="M204,137.11c1.08.85.81,2,.74,3.14C203.5,139.43,202.8,138.49,204,137.11Z"/><path class="cls-2" d="M114,103.91c-1.53.1-2.2-.6-2-2.13Z"/><path class="cls-2" d="M168.38,73.46a4.77,4.77,0,0,1-.45-3.51C169.77,70.9,168.8,72.22,168.38,73.46Z"/><path class="cls-16" d="M43.59,40.22,41.83,41C42,39.8,42.81,40,43.59,40.22Z"/><path class="cls-2" d="M166.74,70c-.11-.75-1.31-1.11-.76-2.1,1.83-.56,1.9.74,2.07,1.94Z"/><path class="cls-4" d="M180,94.19c-.32-1-.2-1.83,1.08-2C181.59,93.32,181.25,94,180,94.19Z"/><path class="cls-2" d="M156.34,112.59c0-1.51.83-1.33,1.78-.8Z"/><path class="cls-2" d="M153.84,113.17a1.43,1.43,0,0,1,2.26-.49Z"/><path class="cls-2" d="M75.17,115.7C74.1,115.6,74,114.86,74,114Z"/><path class="cls-2" d="M112.62,40.84l1.75-1.3c.2.22.39.44.57.67l-1.6,1.37Z"/><path class="cls-2" d="M77.3,118.54c-1.29.12-1.34-.7-1.26-1.63Z"/><path class="cls-7" d="M95.79,31c.24,1.23-.24,1.94-1.52,2Z"/><path class="cls-12" d="M103.19,23.42l1.68-.31c-.13,1.25-1.13.95-1.9,1.06A1.77,1.77,0,0,1,103.19,23.42Z"/><path class="cls-2" d="M100.88,120c0-.69,0-1.38,0-2.07C102.65,118.62,101.36,119.31,100.88,120Z"/><path class="cls-16" d="M79.77,23.08c-.15,1-1,.52-1.55.78Z"/><path class="cls-16" d="M81.77,22.05c-.16,1.26-1.14.92-1.91,1A1.88,1.88,0,0,1,81.77,22.05Z"/><path class="cls-7" d="M108.78,18c-.26,1.13-1,1.38-2,1C107.14,18.05,107.5,17.11,108.78,18Z"/><path class="cls-10" d="M146.75,182c.34,1,.13,1.74-1,2C145.16,182.87,145.75,182.34,146.75,182Z"/><path class="cls-2" d="M79.35,121.26c-1.53.46-1.31-.55-1.21-1.45C78.55,120.29,79,120.78,79.35,121.26Z"/><path class="cls-13" d="M96.24,96.47c1.51-.19,1.54.76,1.41,1.83A2.06,2.06,0,0,1,96.24,96.47Z"/><path class="cls-12" d="M144.82,124l-.65-.64.55-.24c0,.3.05.6.08.9Z"/><path class="cls-10" d="M143.79,186a1.6,1.6,0,0,1-1.53,2Z"/><path class="cls-3" d="M77.51,146.74l1.66-1.31,1,1-2,1Z"/><path class="cls-7" d="M88.89,94c-1.1-.29-1.29-1-1-2A1.48,1.48,0,0,1,88.89,94Z"/><path class="cls-14" d="M132.83,146c-.35,1-1.29.92-2.09,1.06C131.12,146.06,132,146,132.83,146Z"/><path class="cls-14" d="M83.46,76.24a2.26,2.26,0,0,1-.79-.08c-.49-.26-.56-.68,0-1a.92.92,0,0,1,.81.24C83.57,75.58,83.46,76,83.46,76.24Z"/><path class="cls-14" d="M130.83,147c-.4.89-1.27.77-2,.93Z"/><path class="cls-3" d="M77,148.28l-1.7,1.22-.8-.69a2.07,2.07,0,0,1,1.89-1.13Z"/><path class="cls-3" d="M75.34,149.5l-1.15,1.14c-.7-.77-.26-1.32.35-1.83Z"/><path class="cls-2" d="M164,107.31c0-.88-.23-1.92,1.28-1.37Z"/><path class="cls-13" d="M107.61,106.16c1,0,1.83,0,2.19,1.14C108.91,107.23,108,107.14,107.61,106.16Z"/><path class="cls-2" d="M110.13,98.91c-1.16-.35-1.25-1.17-1-2.16Z"/><path class="cls-13" d="M101.57,102.21c1.06-.16,2-.07,1.93,1.34A2.2,2.2,0,0,1,101.57,102.21Z"/><path class="cls-2" d="M162.88,108.5c-.74-1.53.41-1.2,1.2-1.23Z"/><path class="cls-2" d="M111.3,100.6c-1.36,0-1.37-.84-1.25-1.81Z"/><path class="cls-9" d="M114.83,271.05l-1.69,1.43c-.13-.18-.27-.37-.42-.54a2,2,0,0,1,1.8-1.14Z"/><path class="cls-13" d="M184.42,189.19c1.29.17,1.32,1.1,1.26,2.08Z"/><path class="cls-4" d="M105.78,58l-.54,2.19C104.61,59.25,104.68,58.5,105.78,58Z"/><path class="cls-13" d="M109.66,107.05l1.1.78C110.2,107.84,109.7,107.78,109.66,107.05Z"/><path class="cls-6" d="M218.75,152.08l-.37-.48.49.37Z"/><path class="cls-4" d="M117.8,58.23l-1,.8Z"/><path class="cls-3" d="M76.43,147.68l1.08-.94.72.72c-.39.28-.79.55-1.19.82Z"/><path class="cls-5" d="M178.57,136.09a4.49,4.49,0,0,1-.29-.77c0-.08.2-.2.31-.31C178.58,135.37,178.58,135.73,178.57,136.09Z"/><path class="cls-2" d="M225.61,134.2l.42.19-.6.22Z"/><path class="cls-3" d="M134.86,133a.88.88,0,0,1-1-1l-.05.06,1,1Z"/><path class="cls-3" d="M133.86,132l-.61-.35c.1,0,.24,0,.29,0a2.09,2.09,0,0,1,.27.39Z"/><path class="cls-7" d="M151.89,130a.89.89,0,0,1-1-1C151.75,128.77,152.21,129,151.89,130Z"/><path class="cls-2" d="M212.56,127.65a1.09,1.09,0,0,1-.57,1.44Z"/><path class="cls-7" d="M150.88,129c-.69,0-1-.34-1-1C150.64,127.87,151.11,128.08,150.88,129Z"/><path class="cls-7" d="M100.87,46.11l.08-.41c0,.12-.09.24-.14.36Z"/><path class="cls-7" d="M149.88,128l-1.3-1C149.43,126.8,149.9,127.08,149.88,128Z"/><path class="cls-7" d="M180.71,45c-.56-.1-.91-.37-.85-1C180.94,43.63,180.7,44.42,180.71,45Z"/><path class="cls-5" d="M82,126.28c-.22.18-.57.56-.65.51-.61-.4-.16-.7.16-1C81.71,126,81.87,126.11,82,126.28Z"/><path class="cls-13" d="M186.81,122.59c-.1.68,0,1.55-1.11,1.42Z"/><path class="cls-2" d="M79.3,123.4l.21-1.64C80.13,122.4,79.93,122.93,79.3,123.4Z"/><path class="cls-2" d="M78.1,119.75c-.68-.07-.94-.44-.77-1.1C77.59,119,77.84,119.38,78.1,119.75Z"/><path class="cls-11" d="M107.37,41.33c.43-.22.9-.47,1.14.18,0,.13-.36.43-.56.66Z"/><path class="cls-2" d="M161.75,109.17l-.3-.19.37.1Z"/><path class="cls-2" d="M115.1,104.85l-1.19-1Z"/><path class="cls-13" d="M103.51,103.21a1.18,1.18,0,0,1,1.17,1.17C104,104.28,103.29,104.21,103.51,103.21Z"/><path class="cls-5" d="M100,28.14,101.12,27Z"/><path class="cls-16" d="M77.41,24.5l-.09.06Z"/><path class="cls-12" d="M104.86,23.11l1-1C106.09,23,105.55,23.15,104.86,23.11Z"/><path class="cls-2" d="M112.11,101.87c-.67-.15-1-.53-.78-1.22Z"/><path class="cls-13" d="M100.54,101.14a1.25,1.25,0,0,1,1.19,1.17Z"/><path class="cls-4" d="M175.91,99.2a1,1,0,0,1,1-1.06C177.12,99,176.65,99.23,175.91,99.2Z"/><path class="cls-13" d="M95.44,95.27a1.1,1.1,0,0,1,1.25,1C95.68,96.68,95.53,96,95.44,95.27Z"/><path class="cls-13" d="M94.54,94.13a1.18,1.18,0,0,1,1.11,1.22C94.82,95.37,94.68,94.75,94.54,94.13Z"/><path class="cls-7" d="M90.33,95.06A1.34,1.34,0,0,1,88.84,94C89.69,93.85,90,94.49,90.33,95.06Z"/><path class="cls-11" d="M132.8,218l0,1.37-.88-.83Z"/><path class="cls-9" d="M108.48,274.71c.38-.49.78-.83,1.36-.26l-.83.8Z"/><path class="cls-10" d="M144.77,185c0,.67-.31,1-1,1C143.8,185.39,144,184.92,144.77,185Z"/><path class="cls-10" d="M145.76,184c0,.66-.31,1-1,1C144.69,184.27,144.79,183.7,145.76,184Z"/><path class="cls-11" d="M148.8,204c0,.25.08.68,0,.73-.53.25-.8,0-.87-.57A2.91,2.91,0,0,1,148.8,204Z"/><path class="cls-10" d="M130.81,201.89,129.76,203Z"/><path class="cls-11" d="M182.78,193l-1-1C182.6,191.87,182.66,192.47,182.78,193Z"/><path class="cls-11" d="M181.88,192.06c-.73,0-1-.4-1-1.09C182,190.52,181.94,191.3,181.88,192.06Z"/><path class="cls-9" d="M115.61,269.81a1,1,0,0,1,1.19-.78l0,0-1,1Z"/><path class="cls-9" d="M115.83,270.07l-1,1-.31-.25,1.09-1Z"/><path class="cls-2" d="M162.94,66c-.84,0-1.18-.54-1.23-1.32C162.28,64.94,163.13,65,162.94,66Z"/><path class="cls-13" d="M183.59,188.1l1.13,1.21C184,189.26,183.76,188.69,183.59,188.1Z"/><path class="cls-1" d="M33.49,100c6.43.16,10.9,7.7,8.17,12.7a22.79,22.79,0,0,1-8.35,8.31c-3.26,2-6.47,3.2-9.91,0s-4.59-6.71-2-11C24.46,105.11,28.1,101,33.49,100Zm-9.68,17.08c2.31,4.12,5.34,3.73,8.68,1.39a29.73,29.73,0,0,0,6.1-5.81c2.35-2.92,2.81-5.58-.69-8-2.7-3.41-5.49-2-8.16,0C24.19,108.71,22.2,113,23.81,117.12Z"/><path class="cls-1" d="M60.72,110.13a77,77,0,0,1-17.2-32.08c6,10.51,11.25,21.4,17.86,31.53A6.87,6.87,0,0,0,60.72,110.13Z"/><path class="cls-1" d="M41.29,92.46A60.58,60.58,0,0,1,29.71,60.31C33.08,71.14,37.59,81.52,41.89,92Z"/><path class="cls-1" d="M61.38,109.58c.3.74.81,1.48,0,2.23-.22-.56-.44-1.12-.67-1.68A6.87,6.87,0,0,1,61.38,109.58Z"/><path class="cls-1" d="M41.89,92c.79.3,1,1.17.54,1.5-.72.45-.73-.69-1.14-1Z"/><path class="cls-1" d="M242.56,183.25c.08,4.65-6.3,10.78-11.27,10.83-5.47,0-12.36-7.45-12.47-13.55-.07-4.61,5.92-10.75,10.62-10.87C235,169.51,242.46,177.19,242.56,183.25Zm-4.43-3.42.08-.11c-3.3-7.23-7.92-9-12.59-4.86l-1.77,1.79c-3.17,3.85-2.79,7.21,1.43,11.56,2.9,3,6,4.89,9.63,1l-.07-.13a3.62,3.62,0,0,0,3-1.9C240.45,184.81,240.73,182.38,238.13,179.83Z"/><path class="cls-1" d="M7.26,170.6l-1.12-.88a70.55,70.55,0,0,1-4.39-5.87c-1.91-3.14-2.83-6.28.28-9.51S8.42,150,12.7,152.17c6.76,3.47,10.61,9.34,9.89,15.69L21.3,169.6l-1,.91-1,1-1.08.88c-2.61,2-5.33,1.25-8,.31l-1.81-1.21ZM11,154.83c-1.77-1.33-3.52-1.69-5.26,0-3.57,2-3.66,4.69-1.65,7.81a24.45,24.45,0,0,0,7.1,7.4c2.6,1.72,4.88,1.77,6.67-1.15,2.61-1.48,3.36-3.53,1.87-6.22a14.16,14.16,0,0,0-4.84-5.52A6.23,6.23,0,0,0,11,154.83Z"/><path class="cls-15" d="M199.65,29.81a3.42,3.42,0,0,1-.75-4.47,20.08,20.08,0,0,1,11.25-9.87A4.38,4.38,0,0,1,216,17.68C212.48,24.31,207.34,28.79,199.65,29.81Z"/><path class="cls-10" d="M199.65,29.81c7.69-1,12.83-5.5,16.37-12.13,3.55,3.05,2.74,5.9-.24,8.83a26,26,0,0,1-9,6.12C203.7,33.79,200.77,33.89,199.65,29.81Z"/><path class="cls-10" d="M205.91,221.9c3.49,3.1,3.11,6-.14,9.13a35.47,35.47,0,0,1-8,5.74c-3.77,1.95-6.64,1.43-8.34-2.75,1.2,0,2.41.09,3.35-.87l1.1-.14c2.38.17,3.42-1.71,4.77-3.13,3.9-.75,5.61-3.69,7-7Z"/><path class="cls-15" d="M192.8,233.15c-.94,1-2.15.91-3.35.87-2.52-3.56.42-5.76,2.18-8.1a15.07,15.07,0,0,1,5.69-4.54,4.67,4.67,0,0,0,.5.67C195.14,225.3,193.13,228.85,192.8,233.15Z"/><path class="cls-15" d="M205.91,221.9l-.24,1c-1.44-.94-2.7-2.43-4.13.32a34.25,34.25,0,0,0-2.87,6.65c-1.35,1.42-2.39,3.3-4.77,3.13,1-3.76,5-6.45,3.92-11a4.67,4.67,0,0,1-.5-.67C200.31,219.59,203.26,218.28,205.91,221.9Z"/><path class="cls-15" d="M12.39,210.52c5.79-2.58,8,1.89,10.63,5.44-2.26,3-2.59,6.8-4.17,10.08a2.08,2.08,0,0,1-2.07-.87,20.58,20.58,0,0,0,2.8-11.23c-3.18,3.28-2,7.68-4.75,10.22a6.44,6.44,0,0,1-2.9-3.21c.79-2.58,1.54-5.19,2.41-7.75.52-1.54-.14-2.06-1.53-2.16Z"/><path class="cls-10" d="M16.78,225.17a2.08,2.08,0,0,0,2.07.87l2.28.07c-4.55,3.67-6.76,3.53-10.8-.68C6.07,221,5.64,217.28,9,213.67l.73.4c-.06,2.55.08,5,2.22,6.88a6.46,6.46,0,0,0,2.89,3.21Z"/><path class="cls-16" d="M21.13,226.11,18.85,226C20.43,222.76,20.76,219,23,216,26.2,220.05,25.19,223.36,21.13,226.11Z"/><path class="cls-15" d="M9.71,214.07l-.73-.4c1-1.21,1.83-2.58,3.41-3.15l.42.52A7.6,7.6,0,0,1,9.71,214.07Z"/><path class="cls-15" d="M214.79,63.73c4.56-4.59,5.51-4.69,10.3-1.07-2,.53-2.35,2-2.31,3.83.06,3.16,0,6.33,0,9.49-2,0-3-1.44-4.08-2.77a6.68,6.68,0,0,0,.44-.89,14.1,14.1,0,0,0,.16-8.69,1.71,1.71,0,0,0-1.29,0c-2.55,2.71-.75,5.56-.2,8.37C215.11,69.88,214.75,66.87,214.79,63.73Z"/><path class="cls-10" d="M218.67,73.21c1.08,1.33,2.08,2.79,4.08,2.77,1.14,1.36,2.63.92,4.05.81-4.89,3.4-7.85,3.11-11.5-1.13-4.23-4.92-4.35-7.83-.51-11.93,0,3.14.32,6.15,3,8.32Z"/><path class="cls-16" d="M226.8,76.79c-1.42.11-2.91.55-4.05-.81,0-3.16.09-6.33,0-9.49,0-1.83.3-3.3,2.31-3.83l-.05.09q0,6.1,0,12.21c1.29-6.87,1.29-6.87,3.26-8.54l0,.32c.21,2.57.43,5.13.64,7.7C228.69,75.66,227.67,76.15,226.8,76.79Z"/><path class="cls-15" d="M228.29,66.42c-2,1.67-2,1.67-3.26,8.54q0-6.1,0-12.21A6.23,6.23,0,0,1,228.29,66.42Z"/><path class="cls-15" d="M228.89,74.44c-.21-2.57-.43-5.13-.64-7.7C230.6,69.13,231.13,71.67,228.89,74.44Z"/><path class="cls-1" d="M133.4,159.61l1.1-1.2c.66.82.12,1.34-.46,1.85C133.82,160.05,133.61,159.83,133.4,159.61Z"/><path class="cls-1" d="M122,151.2l-.53.73c-.71-.64-.08-.74.37-.91Z"/><path class="cls-1" d="M123.25,150.46l-1.3.74-.16-.18.93-1.06Z"/><path class="cls-1" d="M134,160.26l-.67,1.26-.85-.76c.29-.39.59-.77.88-1.15C133.61,159.83,133.82,160.05,134,160.26Z"/><path class="cls-6" d="M118.85,109.64c2.61,1.1,5.26,2,8.16,1.78C124.11,114.34,121.34,113.73,118.85,109.64Z"/><path class="cls-13" d="M132.75,60.87a18.55,18.55,0,0,1,8.5,2.16c1.19.69,1.58,2.74,3.56,2.11l-.08-.06c-.43,1.08-.14,1.48,1,1l-.17.08c.71,4.1,4.42,7.86,1.42,12.38,0-2-.62-1.86-2.39-1.2-10.32,3.88-19.27-1.44-20.62-12,0-.18-.54-.3-.82-.44A15,15,0,0,1,132.75,60.87Z"/><path class="cls-11" d="M145.89,81.05C141.8,87,134.64,88,127.18,83.62c-8.06-4.69-10-9.16-6.72-15.84-.09,6.11,3.26,9.59,8.59,12A24.84,24.84,0,0,0,145.89,81.05Z"/><path class="cls-4" d="M145.89,81.05a24.84,24.84,0,0,1-16.84-1.3c-5.33-2.38-8.68-5.86-8.59-12,.58-1.26,1.24-2.44,2.7-2.87.28.14.79.26.82.44,1.35,10.59,10.3,15.91,20.62,12,1.77-.66,2.36-.75,2.39,1.2C146.63,79.4,146.26,80.23,145.89,81.05Z"/><path class="cls-10" d="M109.53,252.35a2.21,2.21,0,0,1,2.27,2.28,3.46,3.46,0,0,1-2.33,3.92c-1.83.61-1.65-1.05-1.69-2.13C107.72,254.78,107.67,253.08,109.53,252.35Z"/><path class="cls-9" d="M57.77,57l.53-.45-.45.53Z"/><path class="cls-9" d="M146.8,213c-.26.62.19,1.74-1,1.7a2.48,2.48,0,0,1-2-1.65l.11-.11,3,.09Z"/><path class="cls-9" d="M143.77,213.08l-.43-.55.54.44Z"/><path class="cls-6" d="M144.81,65.14c-2,.63-2.37-1.42-3.56-2.11C143,62.83,144.28,63.33,144.81,65.14Z"/><path class="cls-6" d="M145.74,66.12c-1.15.44-1.44,0-1-1C145.53,65,146.11,65.08,145.74,66.12Z"/><path class="cls-16" d="M113.34,41.58l1.6-1.37,4.84-.25a9.74,9.74,0,0,1-7.08,3C112.91,42.5,113.12,42,113.34,41.58Z"/><path class="cls-16" d="M111.85,43.86l.9-.89-.21,1.25Z"/><path class="cls-15" d="M23.81,117.12c-1.61-4.15.38-8.41,5.93-12.41,2.67-1.94,5.46-3.37,8.16,0C35.33,111.3,31.05,115.9,23.81,117.12Z"/><path class="cls-10" d="M23.81,117.12c7.24-1.22,11.52-5.82,14.09-12.37,3.5,2.37,3,5,.69,8a29.73,29.73,0,0,1-6.1,5.81C29.15,120.85,26.12,121.24,23.81,117.12Z"/><path class="cls-15" d="M225.62,174.86c4.67-4.16,9.29-2.37,12.59,4.86-2-.8-3.94-1.77-3.45,2a59.21,59.21,0,0,1,.08,7.3l.07.13-1-.3c-.59-4.32.84-8.89-2-13v12.2c-1.44,0-2.25-1-3.07-2,0-2.76,0-5.52.05-8.27.09-2.18-1-2.91-3-2.71Z"/><path class="cls-10" d="M233.87,188.87l1,.3c-3.63,3.93-6.73,2-9.63-1-4.22-4.35-4.6-7.71-1.43-11.56.29.83.59,1.66.89,2.48a11.85,11.85,0,0,0,4,6.94c.82,1,1.63,2,3.07,2Z"/><path class="cls-16" d="M234.84,189a59.21,59.21,0,0,0-.08-7.3c-.49-3.79,1.45-2.82,3.45-2l-.08.11c-.11,2.44-.21,4.87-.32,7.31A3.62,3.62,0,0,1,234.84,189Z"/><path class="cls-15" d="M237.81,187.14c.11-2.44.21-4.87.32-7.31C240.73,182.38,240.45,184.81,237.81,187.14Z"/><path class="cls-15" d="M224.74,179.13c-.3-.82-.6-1.65-.89-2.48l1.77-1.79.23.23C225.75,176.51,226.1,178.06,224.74,179.13Z"/><path class="cls-10" d="M17.86,168.94c-1.79,2.92-4.07,2.87-6.67,1.15a24.45,24.45,0,0,1-7.1-7.4c-2-3.12-1.92-5.84,1.65-7.8l.24,1a8,8,0,0,0,3.75,6.32c.48,2.21,2.1,3.28,4,4.07C14.66,167.85,16.29,168.35,17.86,168.94Z"/><path class="cls-16" d="M17.86,168.94c-1.57-.59-3.2-1.09-4.11-2.69.35-3-.9-6.24,1.14-9.05a14.16,14.16,0,0,1,4.84,5.52C21.22,165.41,20.47,167.46,17.86,168.94Z"/><path class="cls-15" d="M14.89,157.2c-2,2.81-.79,6-1.14,9.05-1.92-.79-3.54-1.86-4-4.07,2-2.12.66-4.73,1-7.09l.23-.26A6.23,6.23,0,0,1,14.89,157.2Z"/><path class="cls-15" d="M6,155.86l-.24-1c1.74-1.75,3.49-1.39,5.26-.06l-.23.26A8.16,8.16,0,0,0,6,155.86Z"/><path class="cls-16" d="M198.67,229.88a34.25,34.25,0,0,1,2.87-6.65c1.43-2.75,2.69-1.26,4.13-.32C204.28,226.19,202.57,229.13,198.67,229.88Z"/><path class="cls-16" d="M197.82,222.05c1.07,4.51-2.91,7.2-3.92,11l-1.1.14C193.13,228.85,195.14,225.3,197.82,222.05Z"/><path class="cls-16" d="M9.71,214.07a7.6,7.6,0,0,0,3.1-3c1.39.1,2,.62,1.53,2.16-.87,2.56-1.62,5.17-2.41,7.75C9.79,219.11,9.65,216.62,9.71,214.07Z"/><path class="cls-16" d="M16.78,225.17l-2-1c2.77-2.54,1.58-6.94,4.76-10.22A20.58,20.58,0,0,1,16.78,225.17Z"/><path class="cls-16" d="M218.67,73.21l-.89-1.16c-.55-2.81-2.35-5.66.2-8.37a1.71,1.71,0,0,1,1.29,0,14.1,14.1,0,0,1-.16,8.69A6.68,6.68,0,0,1,218.67,73.21Z"/><path class="cls-16" d="M224.74,179.13c1.36-1.07,1-2.62,1.11-4,2-.2,3.05.53,3,2.71-.1,2.75,0,5.51-.05,8.27A11.85,11.85,0,0,1,224.74,179.13Z"/><path class="cls-16" d="M233.87,188.87l-2-.8v-12.2C234.71,180,233.28,184.55,233.87,188.87Z"/><path class="cls-16" d="M6,155.86a8.16,8.16,0,0,1,4.79-.77c-.38,2.36,1,5-1,7.09A8,8,0,0,1,6,155.86Z"/></g></g></svg>