<svg xmlns="http://www.w3.org/2000/svg" width="87" height="59.323" viewBox="0 0 87 59.323">
  <g id="youtube-symbol" transform="translate(0 -14.676)">
    <path id="Path_8" data-name="Path 8" d="M85.5,24.219a10.907,10.907,0,0,0-9.405-8.364C65.3,14.677,54.383,14.671,43.514,14.677s-21.792,0-32.581,1.178a10.9,10.9,0,0,0-9.4,8.364C.017,30.665,0,37.7,0,44.338S0,58.01,1.516,64.455a10.9,10.9,0,0,0,9.4,8.364C21.705,74,32.626,74,43.5,74s21.791,0,32.577-1.179a10.908,10.908,0,0,0,9.4-8.364C86.995,58.009,87,50.974,87,44.338S87.013,30.665,85.5,24.219ZM32.273,57.548V29.4L59.931,43.518C50.681,48.212,41.518,52.858,32.273,57.548Z" fill="red"/>
  </g>
</svg>
